<svg xmlns="http://www.w3.org/2000/svg" width="57.299" height="64.059" viewBox="0 0 57.299 64.059">
  <g id="Groupe_3" data-name="Groupe 3" transform="translate(-792.23 -785.235)">
    <path id="Tracé_8" data-name="Tracé 8" d="M847.474,805.225c0,12.241-8.756,22.164-16.144,22.164-6.294,0-16.144-9.924-16.144-22.164s7.228-18.334,16.144-18.334S847.474,792.983,847.474,805.225Z" transform="translate(-10.449)" fill="none" stroke="#000" stroke-linecap="round" stroke-linejoin="round" stroke-width="3.313"/>
    <path id="Tracé_9" data-name="Tracé 9" d="M830.166,864.45a51.4,51.4,0,0,1-9.285,9.472,51.406,51.406,0,0,1-9.286-9.472c-10.333,4.991-17.708,16.394-17.708,16.394a77.619,77.619,0,0,0,53.986,0S840.5,869.441,830.166,864.45Z" transform="translate(0 -38.051)" fill="none" stroke="#000" stroke-linecap="round" stroke-linejoin="round" stroke-width="3.313"/>
  </g>
</svg>
