<?xml version="1.0" encoding="utf-8"?>
<!-- Generator: Adobe Illustrator 23.0.2, SVG Export Plug-In . SVG Version: 6.00 Build 0)  -->
<svg version="1.1" id="Calque_1" xmlns="http://www.w3.org/2000/svg" xmlns:xlink="http://www.w3.org/1999/xlink" x="0px" y="0px"
	 viewBox="0 0 145.13 173.48" style="enable-background:new 0 0 145.13 173.48;" xml:space="preserve">
<style type="text/css">
	.st0{fill:#8C1816;}
	.st1{fill:none;}
	.st2{fill:#FFFFFF;}
</style>
<g>
	<path class="st0" d="M52.26,153.74c-3.46,0-6.28-2.82-6.28-6.28v-5.06c0-3.46,2.82-6.28,6.28-6.28c3.46,0,6.28,2.82,6.28,6.28v5.06
		C58.54,150.93,55.72,153.74,52.26,153.74z M52.26,137.52c-2.69,0-4.88,2.19-4.88,4.88v5.06c0,2.69,2.19,4.88,4.88,4.88
		s4.88-2.19,4.88-4.88v-5.06C57.14,139.71,54.95,137.52,52.26,137.52z"/>
	<path class="st0" d="M90.08,153.74c-3.46,0-6.28-2.82-6.28-6.28v-5.07c0-3.46,2.82-6.28,6.28-6.28s6.28,2.82,6.28,6.28v5.07
		C96.36,150.93,93.54,153.74,90.08,153.74z M90.08,137.52c-2.69,0-4.88,2.19-4.88,4.88v5.07c0,2.69,2.19,4.88,4.88,4.88
		s4.88-2.19,4.88-4.88v-5.07C94.95,139.71,92.77,137.52,90.08,137.52z"/>
	<path class="st0" d="M52.26,42.16c-3.46,0-6.28-2.82-6.28-6.28v-5.06c0-3.46,2.82-6.28,6.28-6.28c3.46,0,6.28,2.82,6.28,6.28v5.06
		C58.54,39.34,55.72,42.16,52.26,42.16z M52.26,25.94c-2.69,0-4.88,2.19-4.88,4.88v5.06c0,2.69,2.19,4.88,4.88,4.88
		s4.88-2.19,4.88-4.88v-5.06C57.14,28.12,54.95,25.94,52.26,25.94z"/>
	<path class="st0" d="M89.93,42.16c-3.46,0-6.28-2.82-6.28-6.28v-5.06c0-3.46,2.82-6.28,6.28-6.28c3.46,0,6.28,2.82,6.28,6.28v5.06
		C96.2,39.34,93.39,42.16,89.93,42.16z M89.93,25.94c-2.69,0-4.88,2.19-4.88,4.88v5.06c0,2.69,2.19,4.88,4.88,4.88
		s4.88-2.19,4.88-4.88v-5.06C94.8,28.12,92.61,25.94,89.93,25.94z"/>
	<path class="st0" d="M76.61,43.29H65.73c-1.23,0-2.24-1-2.24-2.24v-7.21l1.26-0.42l2.47,1.78l-0.12,0.46
		c-0.08,0.32-0.12,0.63-0.12,0.93c0,2.12,1.72,3.84,3.84,3.84c2.12,0,3.84-1.72,3.84-3.84c0-0.23-0.02-0.47-0.07-0.71l-0.09-0.46
		l3.36-2.2l0.98,0.25v7.56C78.85,42.28,77.84,43.29,76.61,43.29z M64.89,35.26v5.79c0,0.46,0.37,0.83,0.83,0.83h10.88
		c0.46,0,0.83-0.37,0.83-0.83v-5.86l-1.4,0.92c0.02,0.17,0.02,0.33,0.02,0.5c0,2.89-2.35,5.24-5.24,5.24s-5.24-2.35-5.24-5.24
		c0-0.26,0.02-0.53,0.06-0.8L64.89,35.26z"/>
	<path class="st0" d="M78.85,28.08l-0.97-0.33l-14.38-0.11v-2.01c0-1.23,1-2.24,2.24-2.24h10.88c1.23,0,2.24,1,2.24,2.24V28.08z
		 M64.89,26.25l12.55,0.1v-0.71c0-0.46-0.37-0.83-0.83-0.83H65.73c-0.46,0-0.83,0.37-0.83,0.83V26.25z"/>
	<path class="st0" d="M70.82,41.84c-2.89,0-5.24-2.35-5.24-5.24c0-0.26,0.02-0.53,0.06-0.8l-1.59-1.15l-6.91,1.8v-7.86l6.95-2.34
		l14.14,0.14l6.83,2.3v7.86l-6.93-1.8l-2.08,1.36c0.02,0.17,0.02,0.33,0.02,0.5C76.07,39.49,73.71,41.84,70.82,41.84z M64.34,33.12
		l2.88,2.08l-0.12,0.46c-0.08,0.32-0.12,0.63-0.12,0.93c0,2.12,1.72,3.84,3.84,3.84c2.12,0,3.84-1.72,3.84-3.84
		c0-0.23-0.02-0.47-0.07-0.71l-0.09-0.46l3.36-2.2l5.78,1.5V29.7l-5.77-1.94l-13.57-0.1l-5.77,1.94v5.04L64.34,33.12z"/>
	<path class="st0" d="M77.87,144.9l-3.36-2.2l0.09-0.46c0.05-0.24,0.07-0.48,0.07-0.71c0-2.12-1.72-3.84-3.84-3.84
		c-2.12,0-3.84,1.72-3.84,3.84c0,0.3,0.04,0.62,0.12,0.93l0.12,0.46l-2.19,1.59l-1.53-0.09v-7.19c0-1.23,1-2.24,2.24-2.24h10.88
		c1.23,0,2.24,1,2.24,2.24v7.42L77.87,144.9z M76.04,142.03l1.4,0.92v-5.71c0-0.46-0.37-0.83-0.83-0.83h-4.73
		c2.39,0.49,4.19,2.61,4.19,5.14C76.07,141.69,76.06,141.86,76.04,142.03z M65.73,136.39c-0.46,0-0.83,0.37-0.83,0.83v5.64
		l0.75-0.54c-0.04-0.27-0.06-0.54-0.06-0.8c0-2.53,1.8-4.65,4.19-5.14H65.73z"/>
	<path class="st0" d="M76.53,154.87H65.65c-1.23,0-2.24-1-2.24-2.24v-2.15l14.43-0.13l0.93-0.31v2.59
		C78.77,153.87,77.77,154.87,76.53,154.87z M64.82,151.88v0.76c0,0.46,0.37,0.83,0.83,0.83h10.88c0.46,0,0.83-0.37,0.83-0.83v-0.86
		L64.82,151.88z"/>
	<path class="st0" d="M64.08,151.88l-6.95-2.34v-7.86l6.91,1.8l1.59-1.15c-0.04-0.27-0.06-0.54-0.06-0.8c0-2.89,2.35-5.24,5.24-5.24
		s5.24,2.35,5.24,5.24c0,0.16-0.01,0.33-0.02,0.5l2.08,1.36l6.93-1.8v7.86L78,151.78L64.08,151.88z M58.54,148.54l5.77,1.94
		l13.62-0.12l5.73-1.93v-5.04l-5.78,1.5l-3.36-2.2l0.09-0.46c0.05-0.24,0.07-0.48,0.07-0.71c0-2.12-1.72-3.84-3.84-3.84
		c-2.12,0-3.84,1.72-3.84,3.84c0,0.3,0.04,0.62,0.12,0.93l0.12,0.46l-2.88,2.08l-5.8-1.51V148.54z"/>
	<g>
		<g>
			<path class="st0" d="M54.27,162.37c0.27-0.4,0.59-0.88,0.85-1.22c-0.01,0-0.01-0.01-0.01-0.01c-0.35,0.24-0.75,0.47-1.21,0.71
				c-0.65,0.34-0.98,0.5-1.65,0.8c-0.13-0.11-0.2-0.17-0.33-0.29c0.21-0.69,0.32-1.03,0.56-1.7c0.18-0.5,0.36-0.93,0.56-1.31
				c0,0-0.01-0.01-0.01-0.01c-0.3,0.3-0.72,0.7-1.11,1.05c-0.44,0.4-0.66,0.59-1.11,0.98c-0.16-0.16-0.24-0.23-0.4-0.39
				c1.06-0.88,1.59-1.33,2.63-2.24c0.19,0.19,0.29,0.28,0.48,0.46c-0.25,0.67-0.37,1.02-0.6,1.71c-0.15,0.44-0.28,0.82-0.43,1.16
				c0.01,0.01,0.01,0.01,0.01,0.01c0.31-0.19,0.67-0.38,1.09-0.6c0.66-0.32,0.98-0.49,1.61-0.84c0.2,0.16,0.31,0.24,0.52,0.39
				c-0.74,1.17-1.11,1.75-1.83,2.93c-0.18-0.13-0.27-0.2-0.45-0.33C53.77,163.13,53.93,162.88,54.27,162.37z"/>
			<path class="st0" d="M55.74,163.94c-0.38,0.27-0.58,0.4-0.97,0.65c-0.2-0.13-0.29-0.2-0.49-0.34c1.28-0.78,1.9-1.2,3.08-2.08
				c0.2,0.13,0.31,0.19,0.51,0.32c-0.25,1.45-0.35,2.19-0.47,3.69c-0.21-0.11-0.32-0.17-0.53-0.29c0.05-0.47,0.08-0.7,0.14-1.17
				C56.5,164.42,56.24,164.27,55.74,163.94z M57.09,164.37c0.06-0.42,0.09-0.64,0.16-1.06c0.04-0.24,0.1-0.44,0.15-0.64
				c0,0-0.01,0-0.01-0.01c-0.16,0.14-0.32,0.29-0.5,0.42c-0.34,0.25-0.52,0.38-0.87,0.62C56.44,163.98,56.66,164.11,57.09,164.37z"
				/>
			<path class="st0" d="M59.5,163.44c0.29,0.1,0.62,0.23,0.98,0.39c0.64,0.29,1.05,0.61,1.27,0.99c0.22,0.38,0.28,0.83,0.09,1.35
				c-0.19,0.53-0.54,0.89-1.02,1.05c-0.48,0.16-1.17,0.07-1.94-0.28c-0.36-0.17-0.66-0.33-0.9-0.48
				C58.59,165.25,58.89,164.65,59.5,163.44z M58.63,166.4c0.12,0.08,0.3,0.17,0.5,0.26c1.07,0.49,1.86,0.2,2.2-0.66
				c0.29-0.75-0.01-1.41-0.97-1.84c-0.24-0.11-0.42-0.17-0.55-0.21C59.33,164.93,59.1,165.42,58.63,166.4z"/>
			<path class="st0" d="M64.43,167.15c-0.61-0.15-0.91-0.24-1.51-0.42c-0.15,0.47-0.22,0.71-0.37,1.18c0.7,0.22,1.05,0.31,1.76,0.49
				c-0.04,0.14-0.05,0.22-0.09,0.36c-0.93-0.23-1.4-0.36-2.31-0.66c0.43-1.31,0.65-1.96,1.09-3.27c0.78,0.26,1.17,0.37,1.96,0.56
				c-0.04,0.14-0.05,0.22-0.09,0.36c-0.61-0.15-0.91-0.23-1.52-0.42c-0.13,0.42-0.19,0.62-0.32,1.04c0.59,0.18,0.89,0.27,1.49,0.42
				C64.48,166.94,64.46,167.01,64.43,167.15z"/>
			<path class="st0" d="M67.29,165.86c-0.21,1.36-0.31,2.04-0.52,3.4c-0.22-0.03-0.33-0.05-0.54-0.09c0.23-1.36,0.35-2.03,0.58-3.39
				C67,165.82,67.1,165.83,67.29,165.86z"/>
			<path class="st0" d="M67.72,169.39c0.16-1.37,0.24-2.05,0.4-3.42c0.21,0.02,0.32,0.04,0.53,0.06c0.41,0.74,0.63,1.11,1.11,1.83
				c0.28,0.42,0.5,0.79,0.69,1.14c0.01,0,0.01,0,0.01,0c-0.04-0.46-0.04-0.88-0.02-1.42c0.02-0.58,0.02-0.86,0.04-1.44
				c0.18,0,0.27,0.01,0.46,0.01c-0.01,1.38-0.02,2.07-0.03,3.44c-0.22,0-0.33,0-0.55-0.01c-0.52-0.71-0.76-1.08-1.22-1.81
				c-0.25-0.4-0.47-0.82-0.63-1.21c-0.01,0-0.01,0-0.02,0c-0.02,0.44-0.05,0.85-0.1,1.42c-0.06,0.59-0.09,0.88-0.15,1.46
				C68.03,169.43,67.93,169.42,67.72,169.39z"/>
			<path class="st0" d="M72.96,166.09c0.81-0.06,1.21-0.1,2.01-0.22c0.02,0.15,0.03,0.22,0.05,0.37c-0.62,0.09-0.93,0.13-1.55,0.18
				c0.04,0.46,0.06,0.68,0.1,1.14c0.6-0.05,0.9-0.09,1.49-0.17c0.02,0.15,0.03,0.22,0.05,0.36c-0.6,0.09-0.91,0.12-1.51,0.17
				c0.05,0.62,0.08,0.93,0.14,1.55c-0.22,0.02-0.33,0.03-0.55,0.04C73.1,168.15,73.05,167.46,72.96,166.09z"/>
			<path class="st0" d="M75.66,165.81c0.23-0.09,0.57-0.18,0.9-0.25c0.51-0.11,0.85-0.1,1.13,0.02c0.22,0.1,0.39,0.3,0.46,0.56
				c0.12,0.44-0.12,0.82-0.51,1.03c0,0.01,0,0.01,0,0.02c0.32,0.02,0.56,0.21,0.75,0.53c0.25,0.43,0.44,0.72,0.56,0.83
				c-0.22,0.06-0.33,0.09-0.55,0.15c-0.09-0.08-0.26-0.34-0.47-0.73c-0.23-0.43-0.48-0.55-0.95-0.47c-0.19,0.04-0.29,0.06-0.48,0.1
				c0.11,0.59,0.17,0.88,0.28,1.46c-0.22,0.04-0.32,0.06-0.54,0.1C76.01,167.82,75.89,167.15,75.66,165.81z M76.43,167.26
				c0.21-0.04,0.31-0.06,0.52-0.11c0.54-0.12,0.82-0.46,0.72-0.84c-0.11-0.43-0.5-0.53-1.01-0.43c-0.23,0.05-0.39,0.1-0.47,0.14
				C76.29,166.52,76.34,166.77,76.43,167.26z"/>
			<path class="st0" d="M79.91,167.13c-0.03,0.46-0.05,0.7-0.09,1.16c-0.22,0.07-0.33,0.1-0.55,0.16c0.18-1.48,0.23-2.22,0.28-3.69
				c0.22-0.08,0.33-0.12,0.56-0.2c0.96,1.12,1.47,1.66,2.55,2.69c-0.22,0.09-0.33,0.14-0.55,0.23c-0.33-0.33-0.5-0.5-0.82-0.84
				C80.75,166.85,80.47,166.95,79.91,167.13z M81.07,166.36c-0.29-0.31-0.43-0.47-0.71-0.79c-0.16-0.18-0.28-0.36-0.4-0.52
				c0,0-0.01,0-0.01,0c0.01,0.21,0.02,0.43,0.02,0.65c-0.02,0.43-0.03,0.64-0.05,1.07C80.38,166.61,80.61,166.53,81.07,166.36z"/>
			<path class="st0" d="M83.24,167c-0.57-1.25-0.85-1.88-1.41-3.14c0.2-0.09,0.29-0.13,0.49-0.23c0.74,0.42,1.13,0.62,1.92,0.98
				c0.46,0.21,0.85,0.41,1.2,0.61c0,0,0.01-0.01,0.01-0.01c-0.27-0.37-0.49-0.73-0.75-1.2c-0.28-0.5-0.43-0.75-0.71-1.25
				c0.16-0.09,0.24-0.14,0.41-0.24c0.7,1.19,1.05,1.78,1.75,2.96c-0.2,0.12-0.3,0.17-0.49,0.29c-0.83-0.33-1.23-0.52-2.01-0.9
				c-0.43-0.21-0.84-0.45-1.18-0.71c-0.01,0-0.01,0.01-0.01,0.01c0.21,0.38,0.4,0.75,0.64,1.27c0.25,0.53,0.38,0.8,0.63,1.33
				C83.53,166.87,83.44,166.92,83.24,167z"/>
			<path class="st0" d="M89.43,163.09c-0.11,0.2-0.4,0.52-0.83,0.85c-1.01,0.74-2.13,0.71-2.73-0.24c-0.57-0.91-0.26-1.96,0.72-2.68
				c0.39-0.29,0.69-0.41,0.83-0.45c0.05,0.14,0.08,0.22,0.13,0.36c-0.2,0.06-0.46,0.18-0.73,0.38c-0.75,0.56-0.98,1.32-0.49,2.07
				c0.46,0.7,1.28,0.83,2.14,0.19c0.28-0.21,0.52-0.47,0.65-0.68C89.24,162.96,89.31,163.01,89.43,163.09z"/>
			<path class="st0" d="M90.66,159.98c-0.48,0.47-0.72,0.7-1.22,1.14c0.33,0.37,0.49,0.56,0.82,0.93c0.58-0.51,0.87-0.77,1.42-1.33
				c0.11,0.11,0.16,0.16,0.26,0.26c-0.73,0.73-1.11,1.07-1.88,1.72c-0.89-1.05-1.33-1.58-2.21-2.64c0.66-0.55,0.98-0.84,1.6-1.46
				c0.11,0.11,0.16,0.16,0.26,0.26c-0.48,0.48-0.72,0.7-1.22,1.14c0.29,0.33,0.43,0.49,0.72,0.82c0.49-0.43,0.73-0.66,1.21-1.12
				C90.51,159.83,90.56,159.88,90.66,159.98z"/>
		</g>
	</g>
	<path class="st0" d="M38.72,60.99c-0.04-0.08-0.07-0.16-0.11-0.24c-0.98-2.38-2.68-4.39-4.95-5.61c-0.03-0.01-0.05-0.03-0.08-0.04
		c-1.74-0.93-3.79-1.39-6.14-1.39c-1.09,0-2.17,0.09-3.23,0.28c-1.82,0.32-3.59,0.91-5.31,1.78c-2.72,1.37-5.1,3.16-7.15,5.38
		c-2.05,2.21-3.6,4.68-4.67,7.39c-1.07,2.72-1.43,5.42-1.09,8.11C6.33,79,7.07,80.9,8.22,82.36c1.15,1.46,2.52,2.67,4.12,3.65
		c0.48,0.3,0.98,0.58,1.49,0.86c1.17,0.65,2.39,1.26,3.69,1.82c1.85,0.81,3.62,1.75,5.3,2.81c2.19,1.46,3.28,3.19,3.28,5.21
		c0,1.57-0.49,2.93-1.47,4.08c-0.98,1.15-2.19,2.11-3.62,2.9c-1.31,0.72-2.69,1.26-4.13,1.65c-0.14,0.04-0.27,0.08-0.41,0.11
		c-1.6,0.39-3.02,0.59-4.25,0.59c-0.62,0-1.28-0.07-1.98-0.21c-0.7-0.14-1.35-0.35-1.94-0.63c-0.59-0.28-1.08-0.67-1.47-1.17
		c-0.39-0.5-0.59-1.14-0.59-1.92c0-0.89,0.24-1.75,0.72-2.59c0.48-0.83,1.08-1.59,1.81-2.25c0.73-0.67,1.54-1.21,2.44-1.63
		c0.9-0.42,1.77-0.63,2.61-0.63c0.34,0,0.5-0.14,0.5-0.42c0-0.28-0.03-0.56-0.08-0.84c-0.17-0.5-0.46-1.04-0.88-1.6
		c-0.42-0.56-0.91-1.08-1.47-1.56c-0.56-0.48-1.16-0.87-1.81-1.18c-0.65-0.31-1.25-0.46-1.81-0.46c-0.45,0-0.93,0.13-1.43,0.38
		c-0.5,0.25-0.98,0.58-1.43,0.97c-0.45,0.39-0.86,0.79-1.22,1.18c-0.37,0.39-0.66,0.76-0.88,1.09c-1.18,1.57-1.99,3.34-2.44,5.3
		c-0.45,2.02-0.39,3.84,0.17,5.47c0.56,1.63,1.44,2.99,2.65,4.08c1.21,1.09,2.65,1.93,4.33,2.52c1.68,0.59,3.45,0.88,5.3,0.88
		c1.81,0,3.64-0.2,5.49-0.58c0.44-0.09,0.88-0.19,1.32-0.3c2.3-0.59,4.43-1.5,6.39-2.73c1.96-1.23,3.67-2.75,5.13-4.54
		c1.46-1.79,2.44-3.87,2.94-6.23c0.5-2.52,0.13-4.68-1.14-6.48c-1.26-1.79-2.96-3.22-5.09-4.29c-1.23-0.62-2.64-1.19-4.21-1.72
		c-1.57-0.53-3.06-1.18-4.46-1.93c-1.4-0.76-2.58-1.68-3.53-2.78c-0.71-0.82-1.16-1.83-1.34-3.03c-0.06-0.41-0.09-0.84-0.09-1.3
		c0-1.85,0.49-3.74,1.47-5.68c0.3-0.6,0.64-1.19,1-1.75c0.79-1.26,1.7-2.44,2.75-3.55c1.51-1.6,3.17-2.9,4.96-3.91
		c1.79-1.01,3.48-1.51,5.05-1.51c1.23,0,2.09,0.41,2.57,1.22c0.48,0.81,0.72,1.7,0.72,2.65c0,1.29-0.45,2.54-1.35,3.74
		c-0.9,1.21-1.87,2.43-2.9,3.66c-1.04,1.23-2.01,2.52-2.9,3.87c-0.9,1.35-1.35,2.78-1.35,4.29c0,0.62,0.2,1.22,0.59,1.81
		c0.39,0.59,0.87,1.11,1.43,1.56c0.56,0.45,1.16,0.8,1.81,1.05c0.64,0.25,1.22,0.38,1.72,0.38c0.28,0,0.42-0.2,0.42-0.59
		c0-1.51,0.45-3.08,1.35-4.71c0.9-1.63,1.86-3.25,2.9-4.88c1.04-1.63,2-3.25,2.9-4.88c0.9-1.63,1.35-3.2,1.35-4.71
		C39.23,62.35,39.06,61.69,38.72,60.99z"/>
	<path class="st0" d="M144.44,82.63c-0.17-0.25-0.38-0.43-0.63-0.55c-0.25-0.11-0.53-0.11-0.84,0c-0.31,0.11-0.52,0.34-0.63,0.67
		c-1.35,3.42-2.99,6.44-4.92,9.04c-1.93,2.61-4.03,4.95-6.27,7.03l0.17-0.76c0.62-2.64,1.3-5.44,2.06-8.41
		c0.76-2.97,1.58-5.94,2.48-8.92c0.28-0.84,0.56-1.54,0.84-2.1c0.17-0.28,0.28-0.57,0.34-0.88c0.06-0.31-0.06-0.57-0.34-0.8
		c-0.56-0.45-1.4-0.97-2.52-1.56c-1.12-0.59-2.1-0.88-2.94-0.88c-0.5,0-0.9,0.37-1.18,1.09c-0.45,1.01-0.86,2.02-1.22,3.03
		c-0.25,0.68-0.46,1.37-0.67,2.08c-0.1,0.34-0.2,0.69-0.3,1.03c-0.06,0.22-0.11,0.44-0.17,0.63c-0.06,0.2-0.11,0.41-0.17,0.63
		c-0.5,1.46-1.18,3.37-2.02,5.72c-0.84,2.36-1.77,4.64-2.78,6.86c-1.01,2.22-2.05,4.12-3.11,5.72c-1.07,1.6-2.05,2.4-2.94,2.4
		c-0.5,0-0.88-0.27-1.14-0.8c-0.13-0.27-0.19-0.58-0.2-0.96c0-0.19,0.01-0.38,0.03-0.6c0.03-0.21,0.07-0.44,0.12-0.68
		c0.34-1.51,0.72-3.17,1.14-4.96c0.42-1.79,0.88-3.62,1.39-5.47c0.5-1.85,1.05-3.69,1.64-5.51c0.59-1.82,1.19-3.55,1.81-5.17
		c0.11-0.45,0.31-0.91,0.59-1.39c0.28-0.48,0.2-0.88-0.25-1.22c-0.28-0.22-0.63-0.48-1.05-0.76c-0.42-0.28-0.88-0.55-1.39-0.8
		c-0.5-0.25-1.02-0.46-1.56-0.63c-0.53-0.17-1-0.25-1.39-0.25c-0.5,0-0.93,0.37-1.26,1.09c-1.38,3.19-2.61,6.74-3.69,10.66
		c-0.17,0.42-0.34,0.85-0.52,1.29c-0.73,1.8-1.54,3.62-2.44,5.47c-0.9,1.85-1.88,3.66-2.94,5.43c-0.05,0.08-0.1,0.15-0.14,0.22
		c-1.03,1.67-2.13,3.13-3.31,4.36c-0.62,0.62-1.04,0.86-1.26,0.71c-0.22-0.14-0.28-0.69-0.17-1.64c0.39-2.97,1-6.52,1.81-10.64
		c0.81-4.12,1.74-8.27,2.78-12.45c1.04-4.18,2.13-8.06,3.28-11.65c1.15-3.59,2.26-6.34,3.32-8.24c0.17-0.28,0.34-0.52,0.5-0.72
		c0.17-0.2,0.36-0.43,0.59-0.72c0.11-0.11,0.17-0.25,0.17-0.42c0-0.34-0.31-0.7-0.93-1.09c-0.62-0.39-1.33-0.76-2.15-1.09
		c-0.81-0.34-1.63-0.63-2.44-0.88c-0.81-0.25-1.42-0.38-1.81-0.38c-0.56,0-1.21,0.76-1.93,2.27c-0.73,1.51-1.5,3.53-2.31,6.06
		c-0.81,2.52-1.63,5.4-2.44,8.62c-0.81,3.23-1.56,6.53-2.23,9.93c-0.67,3.39-1.28,6.76-1.81,10.1c-0.12,0.76-0.23,1.49-0.34,2.22
		c-0.06,0.12-0.11,0.23-0.17,0.35c-0.56,1.15-1.16,2.28-1.79,3.38c-0.01,0.03-0.03,0.05-0.04,0.08c-0.4,0.69-0.81,1.38-1.23,2.05
		c-1.12,1.77-2.33,3.3-3.62,4.58c-0.45,0.45-0.79,0.62-1.01,0.5c-0.22-0.11-0.28-0.48-0.17-1.09c0.22-1.46,0.55-3.1,0.97-4.92
		c0.36-1.56,0.75-3.17,1.17-4.83c0.01-0.02,0.01-0.05,0.02-0.07c0.07-0.26,0.13-0.52,0.2-0.78c0.5-1.96,1.05-3.94,1.64-5.93
		c0.59-1.99,1.22-3.88,1.89-5.68c0.17-0.39,0.32-0.76,0.46-1.09c0.14-0.34,0.29-0.67,0.46-1.01c0.17-0.34,0.25-0.64,0.25-0.93
		c0-0.39-0.24-0.77-0.72-1.14c-0.48-0.36-1.04-0.7-1.68-1.01c-0.65-0.31-1.28-0.55-1.89-0.72c-0.62-0.17-1.07-0.25-1.35-0.25
		c-0.67,0-2.26,0.01-2.54,0.28c-1.01,0.84-1.79,1.61-2.83,2.96c-1.04,1.35-1.94,2.81-2.95,4.44c-0.98,1.57-3.35,5.32-3.35,5.32
		c0-0.01,0-0.01,0.01-0.02c0.14-0.48,0.28-0.97,0.43-1.45c0.7-2.3,1.44-4.46,2.23-6.48c0.17-0.45,0.39-0.91,0.67-1.39
		c0.28-0.48,0.2-0.88-0.25-1.22c-0.28-0.22-0.63-0.48-1.05-0.76c-0.42-0.28-0.9-0.55-1.43-0.8c-0.53-0.25-1.07-0.46-1.6-0.63
		c-0.53-0.17-1-0.25-1.39-0.25c-0.5,0-0.9,0.37-1.18,1.09c-0.9,2.02-1.72,4.22-2.48,6.6c-0.49,1.53-0.94,3.09-1.37,4.67
		c0,0.01,0,0.01-0.01,0.02c-0.24,0.87-0.47,1.75-0.69,2.63c-0.01,0.06-0.03,0.11-0.04,0.17c-0.53,1.21-1.09,2.43-1.68,3.66
		c-0.93,1.91-1.95,3.74-3.07,5.51c-1.12,1.77-2.3,3.3-3.53,4.58c-0.39,0.34-0.73,0.48-1.01,0.42c-0.28-0.06-0.37-0.39-0.25-1.01
		c0.28-1.51,0.63-3.24,1.05-5.17c0.42-1.93,0.91-3.94,1.47-6.02c0.53-1.96,1.1-3.91,1.7-5.87c0.01-0.02,0.01-0.04,0.02-0.05
		c0.03-0.1,0.06-0.2,0.09-0.3c0.64-2.07,1.33-4.04,2.06-5.89c0.11-0.45,0.31-0.91,0.59-1.39c0.28-0.48,0.2-0.88-0.25-1.22
		c-0.28-0.22-0.63-0.48-1.05-0.76c-0.42-0.28-0.88-0.55-1.39-0.8c-0.5-0.25-1.02-0.46-1.56-0.63c-0.53-0.17-1-0.25-1.39-0.25
		c-0.5,0-0.93,0.37-1.26,1.09c-0.39,0.9-0.76,1.82-1.09,2.78c-0.34,0.95-0.67,1.94-1.01,2.94c-0.12,0.37-0.29,0.86-0.48,1.44
		c-0.01,0.02-0.01,0.04-0.02,0.06c-0.15,0.45-0.32,0.96-0.51,1.53c-0.45,1.35-0.98,2.85-1.6,4.5c-0.62,1.66-1.29,3.37-2.02,5.13
		c-0.73,1.77-1.47,3.37-2.23,4.8c-0.76,1.43-1.51,2.61-2.27,3.53c-0.76,0.93-1.47,1.39-2.15,1.39c-0.45,0-0.8-0.27-1.05-0.8
		c-0.25-0.53-0.27-1.27-0.04-2.23c0.28-1.51,0.63-3.17,1.05-4.96c0.42-1.79,0.88-3.62,1.39-5.47s1.05-3.69,1.64-5.51
		c0.59-1.82,1.19-3.55,1.81-5.17c0.13-0.34,0.3-0.7,0.5-1.06c0.01-0.01,0.01-0.03,0.02-0.04c0.05-0.1,0.1-0.19,0.15-0.29
		c0.28-0.48,0.2-0.88-0.25-1.22c-0.28-0.22-0.63-0.48-1.05-0.76c-0.42-0.28-0.88-0.55-1.39-0.8c-0.06-0.03-0.11-0.05-0.17-0.08
		c-0.02-0.01-0.03-0.01-0.05-0.02c-0.44-0.21-0.88-0.39-1.34-0.53c-0.53-0.17-1-0.25-1.39-0.25c-0.5,0-0.93,0.37-1.26,1.09
		c-1.46,3.37-2.75,7.14-3.87,11.32c-1.12,4.18-1.99,8.26-2.61,12.24c-0.11,0.56-0.18,1.09-0.21,1.6c-0.03,0.5-0.1,1.04-0.21,1.6
		c-0.06,0.62,0.07,1.26,0.38,1.94c0.31,0.67,0.74,1.29,1.3,1.85c0.56,0.56,1.22,1.02,1.98,1.39c0.76,0.37,1.53,0.55,2.31,0.55
		c1.91,0,3.63-0.94,5.17-2.82c1.54-1.88,2.96-4.11,4.25-6.69c-0.06,0.11-0.08,0.21-0.08,0.29c0,0.08-0.03,0.18-0.08,0.29
		c-0.06,0.56-0.11,1.09-0.17,1.6c-0.06,0.5-0.14,1.04-0.25,1.6c-0.11,1.35,0.27,2.64,1.14,3.87c0.87,1.23,2.03,1.85,3.49,1.85
		c1.18,0,2.37-0.48,3.58-1.43c1.21-0.95,2.37-2.17,3.49-3.66c0.99-1.32,1.94-2.78,2.85-4.39c-0.31,1.91-0.53,3.72-0.66,5.44
		c0,0.45,0.18,0.91,0.55,1.39c0.36,0.48,0.81,0.91,1.35,1.3c0.53,0.39,1.11,0.72,1.72,0.97c0.62,0.25,1.18,0.38,1.68,0.38
		c0.28,0,0.52-0.04,0.72-0.13c0.2-0.08,0.29-0.35,0.29-0.8c0.06-0.95,0.29-2.16,0.72-3.62c0.42-1.46,0.97-3.04,1.64-4.75
		c0.67-1.71,1.43-3.49,2.27-5.34c0.82-1.8,1.69-3.54,2.61-5.23c0,0,0-0.01,0.01-0.01c0.03-0.05,0.05-0.09,0.07-0.14
		c0.95-1.74,1.92-3.35,2.9-4.84c0.98-1.49,1.95-2.73,2.9-3.74c-0.62,1.8-1.22,3.72-1.81,5.76c-0.38,1.32-0.74,2.67-1.08,4.03
		c0,0,0,0.01,0,0.01c-0.19,0.74-0.38,1.48-0.56,2.23c-0.5,2.13-0.94,4.24-1.3,6.31c-0.37,2.08-0.66,4.01-0.88,5.8
		c-0.11,1.12,0.31,2.15,1.26,3.07c0.95,0.93,2.16,1.39,3.62,1.39c1.18,0,2.37-0.48,3.58-1.43c1.21-0.95,2.37-2.17,3.49-3.66
		c0.83-1.1,1.63-2.3,2.39-3.59c-0.01,0.15-0.03,0.29-0.04,0.44c-0.06,0.84-0.08,1.74-0.08,2.69c0,0.95,0.13,1.84,0.38,2.65
		c0.25,0.81,0.69,1.5,1.3,2.06c0.62,0.56,1.51,0.84,2.69,0.84c0.18,0,0.36-0.01,0.55-0.03c0.01,0,0.02,0,0.03,0
		c1.03-0.13,2.05-0.59,3.04-1.39c0.84-0.68,1.67-1.5,2.48-2.46c0,0,0,0,0,0c0.16-0.18,0.31-0.37,0.47-0.56
		c0.01-0.01,0.01-0.02,0.02-0.02c0.16-0.19,0.31-0.39,0.46-0.6c0-0.01,0.01-0.01,0.01-0.02c0.56-0.74,1.11-1.53,1.64-2.37
		c0.53-0.83,1.05-1.71,1.56-2.64c0.18-0.34,0.36-0.67,0.54-1c-0.13,0.73-0.26,1.46-0.37,2.18c-0.06,0.56-0.11,1.09-0.17,1.6
		c-0.03,0.25-0.06,0.51-0.11,0.78c-0.04,0.27-0.09,0.54-0.15,0.82c-0.01,0.15-0.02,0.31-0.01,0.47c0.03,0.47,0.15,0.96,0.39,1.47
		c0.31,0.67,0.74,1.29,1.3,1.85c0.56,0.56,1.22,1.02,1.98,1.39c0.76,0.37,1.53,0.55,2.31,0.55c1.91,0,3.63-0.93,5.17-2.78
		c1.35-1.62,2.58-3.52,3.69-5.7c0.16-0.31,0.32-0.63,0.47-0.95c-0.14,0.65-0.28,1.28-0.42,1.9c-0.14,0.62-0.28,1.24-0.42,1.84
		c-0.28,1.21-0.56,2.43-0.84,3.66c-0.9,0.62-1.87,1.23-2.9,1.85c-1.04,0.62-2.06,1.26-3.07,1.94c-1.01,0.67-1.99,1.37-2.94,2.1
		c-0.95,0.73-1.82,1.54-2.61,2.44c-0.62,0.73-1.16,1.56-1.64,2.48c-0.48,0.93-0.8,1.89-0.97,2.9c-0.08,0.5-0.13,1.01-0.14,1.5
		c-0.01,0.5,0.02,0.99,0.09,1.48c0.14,0.98,0.52,1.89,1.14,2.73c0.62,0.9,1.42,1.57,2.4,2.02c0.11,0.05,0.22,0.09,0.33,0.13
		c0.87,0.35,1.76,0.54,2.65,0.54c3.31,0,5.79-0.86,7.45-2.57c1.65-1.71,2.96-3.97,3.91-6.77c0.95-2.64,1.81-5.3,2.57-7.99
		c0.76-2.69,1.44-5.41,2.06-8.16c2.8-2.36,5.47-5.08,7.99-8.16c2.52-3.08,4.6-6.76,6.23-11.02
		C144.61,83.18,144.61,82.88,144.44,82.63z M119.25,115.06c-0.53,1.74-1.05,3.34-1.56,4.8c-0.22,0.6-0.46,1.13-0.71,1.61
		c-0.39,0.72-0.81,1.29-1.26,1.72c-0.09,0.09-0.18,0.17-0.28,0.24c-0.66,0.54-1.31,0.81-1.95,0.81c-0.79,0-1.4-0.34-1.85-1.01
		c-0.45-0.67-0.7-1.38-0.76-2.1c-0.01-0.17-0.02-0.33-0.02-0.5c-0.01-1.15,0.29-2.22,0.91-3.2c0.7-1.12,1.57-2.16,2.61-3.11
		c1.04-0.95,2.15-1.81,3.32-2.57c1.18-0.76,2.24-1.47,3.2-2.15C120.33,111.5,119.78,113.32,119.25,115.06z"/>
	<path class="st1" d="M104.06,115.52C104.06,115.52,104.06,115.52,104.06,115.52C104.06,115.52,104.06,115.52,104.06,115.52z"/>
	<path class="st1" d="M13.08,88.86c0.03,0.03,0.06,0.05,0.09,0.08c0-0.01,0-0.02,0-0.03C13.14,88.9,13.11,88.88,13.08,88.86z"/>
	<path class="st0" d="M51.33,79.84c1.2,1.1,2.49,2.1,3.84,2.99l0.02-0.07c-1.36-0.88-2.65-1.88-3.84-2.97
		C51.34,79.81,51.33,79.82,51.33,79.84z"/>
	<path class="st0" d="M63.87,86.65c1.3,0.33,2.64,0.58,3.99,0.73c0-0.01,0.01-0.02,0.01-0.03c-1.35-0.16-2.68-0.41-3.98-0.75
		C63.88,86.62,63.88,86.63,63.87,86.65z"/>
	<path class="st0" d="M16.12,103.37c0.07-0.02,0.14-0.04,0.21-0.06c0.2-0.05,0.39-0.12,0.59-0.18c-0.64-2.13-1.15-4.3-1.54-6.49
		c-0.37,0.26-0.83,0.43-1.34,0.47c0.38,2.16,0.89,4.29,1.51,6.39c0.14-0.03,0.27-0.06,0.41-0.09
		C16.02,103.4,16.07,103.38,16.12,103.37z"/>
	<path class="st0" d="M14.65,90.44c-0.02-0.26-0.03-0.52-0.04-0.78c-0.48-0.24-0.97-0.49-1.44-0.74c0,0.01,0,0.02,0,0.03
		c0.02,0.02,0.05,0.04,0.07,0.06C13.77,89.45,14.23,89.93,14.65,90.44z"/>
	<path class="st0" d="M41.88,60.11c0.01,0.09,0.01,0.19,0.02,0.28C41.89,60.3,41.89,60.2,41.88,60.11z"/>
	<path class="st0" d="M44.85,71.19c0.25,0.5,0.51,0.99,0.78,1.48C45.36,72.19,45.1,71.69,44.85,71.19z"/>
	<path class="st0" d="M44.19,69.77c0.12,0.27,0.23,0.54,0.36,0.8C44.42,70.31,44.3,70.04,44.19,69.77z"/>
	<path class="st0" d="M43.46,67.91c0.07,0.19,0.13,0.39,0.2,0.58C43.6,68.3,43.53,68.1,43.46,67.91z"/>
	<path class="st0" d="M42.08,62.16c0.02,0.12,0.03,0.25,0.05,0.37C42.12,62.4,42.1,62.28,42.08,62.16z"/>
	<path class="st0" d="M42.92,66.2c0.04,0.15,0.09,0.29,0.13,0.44C43,66.49,42.96,66.34,42.92,66.2z"/>
	<path class="st0" d="M42.43,64.22c0.03,0.13,0.06,0.26,0.09,0.39C42.49,64.48,42.46,64.35,42.43,64.22z"/>
	<path class="st0" d="M43.24,59.33c0-0.07,0-0.14,0-0.21C43.24,59.19,43.24,59.26,43.24,59.33z"/>
	<path class="st0" d="M43.31,60.44c0-0.02,0-0.04,0-0.06C43.3,60.4,43.3,60.42,43.31,60.44z"/>
	<polygon class="st0" points="41.81,58.22 41.81,58.21 41.9,47.66 41.81,58.21 	"/>
	<path class="st0" d="M80.92,89.33c-0.02-0.01-0.03-0.01-0.05-0.02c-0.23-0.08-0.47-0.17-0.71-0.25c0,0,0,0,0,0.01
		c0.25,0.08,0.49,0.16,0.71,0.24C80.89,89.31,80.9,89.32,80.92,89.33z"/>
	<path class="st0" d="M81.29,87.97c0.02,0.01,0.04,0.02,0.07,0.02c0,0,0.01,0,0.01,0c0,0-0.01,0-0.01,0
		C81.33,87.98,81.31,87.97,81.29,87.97z"/>
	<path class="st0" d="M100.3,111.63C100.3,111.62,100.29,111.62,100.3,111.63C100.29,111.62,100.3,111.62,100.3,111.63z"/>
	<path class="st0" d="M98.94,112.08c-0.12-0.99-0.3-1.98-0.52-2.96c-0.01,0-0.01,0-0.02,0C98.63,110.1,98.81,111.08,98.94,112.08z"
		/>
	<path class="st0" d="M46.15,73.54c-0.17-0.27-0.33-0.54-0.48-0.81c0.15,0.27,0.3,0.54,0.47,0.8
		C46.14,73.53,46.15,73.53,46.15,73.54z"/>
	<path class="st0" d="M99.16,115.55c0,0.29-0.01,0.58-0.02,0.87c-0.01,0.26-0.02,0.53-0.04,0.83l0,2.1v-2.1
		c0.02-0.3,0.03-0.57,0.04-0.83C99.15,116.13,99.16,115.84,99.16,115.55c0-0.01,0-0.02,0-0.03
		C99.16,115.53,99.16,115.54,99.16,115.55L99.16,115.55z"/>
	<path class="st0" d="M98.96,112.3c0.06,0.49,0.11,0.99,0.14,1.48C99.07,113.28,99.02,112.79,98.96,112.3z"/>
	<path class="st0" d="M100.5,113.63c-0.01-0.08-0.02-0.16-0.02-0.25C100.48,113.46,100.49,113.55,100.5,113.63z"/>
	<path class="st0" d="M99.1,137.8l0,4.63c0.04,0.61,0.05,1.15,0.05,1.66c0,15.42-12.55,27.97-27.97,27.97
		c-15.42,0-27.97-12.55-27.97-27.97c0-2.29,0.29-4.59,0.86-6.85l0.13-0.52l-0.47-0.26c-10.01-5.56-18.21-14.17-23.3-24.4
		c-0.37,0.09-0.76,0.18-1.2,0.27c-0.07,0.01-0.14,0.02-0.21,0.04c5.13,10.46,13.42,19.29,23.57,25.05c-0.52,2.2-0.78,4.45-0.78,6.67
		c0,16.2,13.18,29.37,29.37,29.37c16.2,0,29.37-13.18,29.37-29.37c0-0.53-0.02-1.1-0.05-1.7l0-5.4c-0.12,0.07-0.23,0.14-0.35,0.21
		L99.1,137.8z"/>
	<path class="st0" d="M41.98,38.36l0.01-1.63C35.44,40.55,29.62,45.72,25,51.77c0.63-0.07,1.25-0.12,1.88-0.14
		C31.09,46.37,36.23,41.83,41.98,38.36z"/>
	<path class="st0" d="M89.62,94.44c-0.01,0.03-0.01,0.06-0.02,0.09c0.73,0.64,1.43,1.32,2.09,2.03c0.02-0.03,0.03-0.05,0.05-0.08
		C91.07,95.76,90.37,95.08,89.62,94.44z"/>
	<path class="st0" d="M81.62,88.1C81.62,88.09,81.62,88.09,81.62,88.1c-0.09-0.04-0.17-0.07-0.26-0.1
		C81.45,88.02,81.54,88.06,81.62,88.1z"/>
	<path class="st0" d="M80.84,87.81C80.84,87.81,80.84,87.81,80.84,87.81c0.15,0.05,0.3,0.1,0.44,0.16
		C81.15,87.91,80.99,87.86,80.84,87.81z"/>
	<path class="st0" d="M81.27,89.46C81.27,89.46,81.27,89.46,81.27,89.46c-0.12-0.05-0.23-0.09-0.35-0.14
		C81.04,89.37,81.16,89.42,81.27,89.46z"/>
	<path class="st0" d="M80.92,89.33c0.12,0.04,0.24,0.09,0.35,0.14c0.02-0.08,0.04-0.15,0.06-0.23l0.03-0.11
		c-0.12-0.05-0.24-0.1-0.37-0.15l0,0c-0.21-0.08-0.44-0.15-0.67-0.23c-0.06,0.1-0.11,0.21-0.16,0.31c0.25,0.08,0.48,0.17,0.71,0.25
		C80.89,89.31,80.91,89.32,80.92,89.33z"/>
	<path class="st0" d="M81.23,88.32c0.1,0.04,0.2,0.08,0.31,0.12c0.03-0.11,0.06-0.23,0.09-0.34c-0.09-0.03-0.17-0.07-0.26-0.1
		c0,0-0.01,0-0.01,0c-0.02-0.01-0.04-0.02-0.07-0.02c-0.14-0.05-0.3-0.1-0.45-0.15c-0.06,0.1-0.12,0.2-0.17,0.31
		C80.86,88.19,81.05,88.25,81.23,88.32L81.23,88.32z"/>
	<path class="st0" d="M81.23,88.32c-0.18-0.07-0.37-0.13-0.56-0.2c-0.08,0.15-0.17,0.29-0.25,0.44l-0.02,0.05l-0.04,0.07l-0.01,0.02
		l-0.01,0.01c-0.01,0.01-0.01,0.03-0.02,0.04c0.23,0.08,0.46,0.15,0.67,0.23L81.23,88.32z"/>
	<path class="st0" d="M81.23,88.32C81.23,88.32,81.23,88.32,81.23,88.32l-0.24,0.66c0,0,0,0,0,0l0,0c0.12,0.05,0.25,0.1,0.37,0.15
		L81.39,89c0.05-0.2,0.1-0.38,0.15-0.57C81.43,88.4,81.33,88.35,81.23,88.32L81.23,88.32z"/>
	<polygon class="st0" points="81.23,88.32 81.23,88.32 80.99,88.98 80.99,88.98 	"/>
	<path class="st0" d="M51.97,78.51c1.14,1.08,2.36,2.06,3.66,2.93l0.02-0.06c-1.3-0.87-2.52-1.84-3.66-2.91
		C51.99,78.49,51.98,78.5,51.97,78.51z"/>
	<path class="st0" d="M43.31,60.44c0.39,4.97,2.09,9.69,4.97,13.8c0.01,0.01,0.03,0.01,0.04,0.02
		C45.41,70.16,43.7,65.43,43.31,60.44z"/>
	<path class="st0" d="M64.28,85.3c1.29,0.33,2.61,0.56,3.95,0.7c0-0.01,0-0.01,0.01-0.02c-1.33-0.15-2.65-0.39-3.94-0.73
		C64.29,85.27,64.29,85.29,64.28,85.3z"/>
	<path class="st0" d="M89.99,93c0.85,0.71,1.67,1.46,2.43,2.26c0.01-0.02,0.02-0.04,0.04-0.07c-0.77-0.8-1.59-1.56-2.45-2.27
		L89.99,93z"/>
	<polygon class="st0" points="41.98,38.36 41.98,38.36 41.9,47.66 	"/>
	<path class="st0" d="M43.67,68.49c0.16,0.43,0.34,0.86,0.52,1.28C44.01,69.35,43.83,68.92,43.67,68.49z"/>
	<path class="st0" d="M43.4,35.91l-0.18,22.3c0,0.3,0.01,0.61,0.02,0.91c-0.01-0.3-0.02-0.61-0.02-0.91l0.23-28.37l-0.01-0.22
		c0-0.08,0-0.15,0.01-0.23l0.02-0.61C43.92,13.57,56.19,1.65,71.41,1.65c15.42,0,27.97,12.55,27.97,27.97c0,2.35-0.3,4.71-0.9,7.03
		l-0.14,0.52l0.47,0.27c15.69,8.78,26.31,24.53,28.56,42.26c0.16-0.52,0.32-0.98,0.47-1.42c0.17-0.46,0.34-0.92,0.53-1.38
		c-2.95-16.92-13.36-31.81-28.41-40.42c0.54-2.26,0.82-4.56,0.82-6.85c0-16.2-13.18-29.37-29.37-29.37
		c-15.76,0-28.51,12.16-29.32,27.81l-0.04,1.29c0,0.09-0.01,0.18-0.01,0.28l0.01,0.22l-0.06,6.89c0.12-0.07,0.23-0.15,0.35-0.21
		L43.4,35.91z"/>
	<path class="st0" d="M44.55,70.57c0.1,0.21,0.2,0.42,0.31,0.62C44.75,70.99,44.64,70.78,44.55,70.57z"/>
	<path class="st0" d="M43.05,66.64c0.13,0.43,0.27,0.85,0.42,1.28C43.32,67.49,43.17,67.06,43.05,66.64z"/>
	<path class="st0" d="M42.52,64.62c0.12,0.53,0.25,1.06,0.4,1.58C42.77,65.67,42.64,65.15,42.52,64.62z"/>
	<path class="st0" d="M41.9,60.39c0.04,0.59,0.11,1.18,0.19,1.77C42,61.57,41.94,60.98,41.9,60.39z"/>
	<path class="st0" d="M41.81,58.22c0,0.64,0.03,1.27,0.07,1.89C41.84,59.48,41.81,58.85,41.81,58.22z"/>
	<path class="st0" d="M42.13,62.53c0.08,0.57,0.18,1.13,0.3,1.69C42.32,63.66,42.22,63.1,42.13,62.53z"/>
	<path class="st0" d="M45.64,72.67c0.01,0.02,0.02,0.04,0.03,0.06C45.66,72.71,45.65,72.69,45.64,72.67z"/>
	<path class="st0" d="M43.3,60.38c-0.03-0.35-0.05-0.7-0.06-1.05C43.25,59.68,43.28,60.03,43.3,60.38z"/>
	<path class="st0" d="M51.88,78.7c-0.02,0.03-0.03,0.06-0.05,0.09c1.15,1.08,2.39,2.06,3.7,2.93l0.1-0.28
		c-1.29-0.87-2.52-1.85-3.66-2.93C51.94,78.58,51.92,78.64,51.88,78.7z"/>
	<path class="st0" d="M51.35,79.79c1.2,1.1,2.49,2.09,3.84,2.97l0.09-0.27l0-0.02c-1.37-0.89-2.61-1.87-3.81-2.98
		C51.42,79.6,51.39,79.69,51.35,79.79z"/>
	<path class="st0" d="M64.19,85.59c1.29,0.33,2.61,0.58,3.95,0.73c0.03-0.11,0.06-0.21,0.09-0.32c-1.34-0.14-2.66-0.37-3.95-0.7
		C64.25,85.4,64.22,85.49,64.19,85.59z"/>
	<path class="st0" d="M63.89,86.6c1.3,0.34,2.63,0.59,3.98,0.75c0.03-0.1,0.06-0.21,0.08-0.32c-1.35-0.15-2.68-0.39-3.98-0.73
		C63.94,86.41,63.92,86.5,63.89,86.6z"/>
	<path class="st0" d="M41.98,38.36l-0.08,9.3l-0.09,10.55c0,0,0,0,0,0.01c0,0.64,0.03,1.27,0.07,1.89c0.01,0.09,0.01,0.19,0.02,0.28
		c0.04,0.59,0.11,1.18,0.19,1.77c0.02,0.12,0.03,0.25,0.05,0.37c0.08,0.57,0.18,1.13,0.3,1.69c0.03,0.13,0.06,0.26,0.09,0.39
		c0.12,0.53,0.25,1.06,0.4,1.58c0.04,0.15,0.09,0.29,0.13,0.44c0.13,0.43,0.27,0.85,0.42,1.28c0.07,0.19,0.13,0.39,0.2,0.58
		c0.16,0.43,0.34,0.86,0.52,1.28c0.12,0.27,0.23,0.54,0.36,0.8c0.1,0.21,0.2,0.42,0.31,0.62c0.25,0.5,0.51,0.99,0.78,1.48
		c0.01,0.02,0.02,0.04,0.03,0.06c0.16,0.27,0.32,0.54,0.48,0.81c0.15,0.03,0.31,0.08,0.46,0.12c-2.91-4.61-4.44-9.89-4.45-15.4
		c0,0,0,0,0-0.01c0,0,0,0,0,0c0-0.01,0-0.01,0-0.02s0-0.01,0-0.02h0.7c0,0.01,0,0.01,0,0.02c0,5.68,1.67,11.11,4.84,15.76
		c0.19,0.07,0.38,0.16,0.57,0.24c-2.88-4.11-4.58-8.83-4.97-13.8c0-0.02,0-0.04,0-0.06c-0.03-0.35-0.05-0.7-0.06-1.05
		c0-0.07,0-0.14,0-0.21c-0.01-0.3-0.02-0.61-0.02-0.91l0.18-22.3l-1.06,0.61c-0.12,0.07-0.23,0.14-0.35,0.21L41.98,38.36
		C41.98,38.36,41.98,38.36,41.98,38.36z"/>
	<path class="st0" d="M89.7,94.13c-0.03,0.1-0.05,0.2-0.08,0.3c0.74,0.64,1.45,1.33,2.11,2.04c0.04-0.07,0.07-0.12,0.11-0.19
		l0.02-0.04l0.01-0.01C91.19,95.5,90.46,94.79,89.7,94.13z"/>
	<path class="st0" d="M89.99,93l-0.01,0.06l-0.06,0.24c0.83,0.69,1.62,1.43,2.37,2.21c0.05-0.08,0.09-0.17,0.14-0.25
		C91.65,94.46,90.84,93.71,89.99,93z"/>
	<path class="st0" d="M55.3,82.43l0.23-0.7c-1.31-0.87-2.55-1.85-3.7-2.93c-0.01,0.01-0.01,0.02-0.02,0.03l-0.07,0.13l0,0L51.73,79
		c-0.1,0.18-0.18,0.34-0.25,0.5c1.2,1.12,2.45,2.09,3.81,2.98"/>
	<path class="st0" d="M64.14,85.76L64.1,85.9l-0.05,0.17l-0.01,0.03l0,0.01c-0.02,0.07-0.04,0.13-0.06,0.2
		c1.3,0.33,2.63,0.58,3.98,0.73c0.04-0.14,0.08-0.28,0.12-0.43c0.03-0.09,0.05-0.18,0.08-0.28c-1.34-0.15-2.66-0.4-3.95-0.73
		C64.17,85.65,64.16,85.7,64.14,85.76z"/>
	<path class="st0" d="M47.7,73.99c-3.16-4.66-4.83-10.08-4.84-15.76c0-0.01,0-0.01,0-0.02h-0.7c0,0.01,0,0.01,0,0.02s0,0.01,0,0.02
		c0,0,0,0,0,0c0,0,0,0,0,0.01c0.01,5.51,1.54,10.79,4.45,15.4c0.14,0.04,0.28,0.06,0.43,0.11C47.26,73.83,47.48,73.91,47.7,73.99z"
		/>
	<path class="st0" d="M100.47,113.38c-0.04-0.59-0.1-1.17-0.18-1.76C100.37,112.21,100.43,112.8,100.47,113.38z"/>
	<polygon class="st0" points="99.1,137.8 99.1,119.35 99.1,137.8 	"/>
	<path class="st0" d="M99.81,108.91c-0.01,0-0.02,0-0.03,0.01c0.21,0.89,0.39,1.79,0.51,2.7
		C100.18,110.71,100.01,109.81,99.81,108.91z"/>
	<path class="st0" d="M98.94,112.08c0.01,0.07,0.01,0.15,0.02,0.22C98.95,112.22,98.95,112.15,98.94,112.08z"/>
	<path class="st0" d="M111.09,128.58c-0.09-0.04-0.19-0.07-0.28-0.11c-0.26-0.12-0.51-0.26-0.75-0.41
		c-2.92,2.76-6.12,5.21-9.55,7.29l0-18.06c0.02-0.27,0.03-0.55,0.04-0.83c0.01-0.3,0.02-0.61,0.02-0.92c0-0.64-0.02-1.28-0.06-1.92
		c0.04,0.64,0.06,1.28,0.06,1.92c0,0.31-0.01,0.61-0.02,0.92c-0.01,0.28-0.02,0.55-0.04,0.83l0,19.69c3.95-2.32,7.61-5.1,10.92-8.28
		c-0.08-0.03-0.16-0.05-0.23-0.08L111.09,128.58z"/>
	<path class="st0" d="M99.1,113.78c0.04,0.58,0.06,1.16,0.06,1.74C99.15,114.94,99.14,114.36,99.1,113.78z"/>
	<path class="st0" d="M100.54,116.47c0.01-0.3,0.02-0.61,0.02-0.92c0-0.64-0.02-1.28-0.06-1.92c-0.01-0.08-0.02-0.16-0.02-0.25
		c-0.04-0.59-0.1-1.17-0.18-1.76c0,0,0-0.01,0-0.01c-0.12-0.91-0.3-1.81-0.51-2.7c-0.11,0.03-0.21,0.04-0.32,0.07
		c0.49,2.15,0.75,4.35,0.75,6.57h-0.7c0-2.17-0.27-4.33-0.76-6.45c-0.12,0.01-0.23,0.02-0.33,0.02c0.22,0.98,0.4,1.96,0.52,2.96
		c0.01,0.07,0.01,0.15,0.02,0.22c0.06,0.49,0.11,0.99,0.14,1.48c0.04,0.58,0.06,1.16,0.06,1.74c0,0.01,0,0.02,0,0.03
		c0,0.29-0.01,0.58-0.02,0.87c-0.01,0.27-0.02,0.53-0.04,0.83v2.1l0,18.45l1.05-0.61c0.12-0.07,0.23-0.14,0.35-0.21l0-19.69
		C100.52,117.02,100.53,116.74,100.54,116.47z M100.19,116.45l-0.7-0.02c0.01-0.29,0.02-0.58,0.02-0.88h0.35c0,0,0,0,0,0
		c0,0,0,0,0,0h0.35C100.21,115.85,100.2,116.15,100.19,116.45z"/>
	<path class="st0" d="M98.94,109.09l-0.02,0c-0.06,0.01-0.11,0.01-0.18,0.01c0.5,2.12,0.76,4.28,0.76,6.45h0.7
		c0-2.21-0.26-4.42-0.75-6.57c-0.16,0.03-0.32,0.08-0.49,0.1L98.94,109.09z"/>
	<path class="st0" d="M99.86,115.55C99.86,115.55,99.86,115.55,99.86,115.55l-0.35,0c0,0.29-0.01,0.59-0.02,0.88l0.7,0.02
		c0.01-0.3,0.02-0.6,0.02-0.9L99.86,115.55C99.86,115.55,99.86,115.55,99.86,115.55z"/>
	<path class="st0" d="M89.91,93.3L89.91,93.3l-0.02,0.07c-0.06,0.26-0.13,0.51-0.19,0.76c0.76,0.66,1.49,1.37,2.18,2.11l0.01-0.02
		c0.13-0.23,0.26-0.47,0.39-0.7C91.53,94.73,90.74,93.99,89.91,93.3z"/>
	<path class="st2" d="M62.59,84.83l-0.02,0.06C62.58,84.87,62.58,84.85,62.59,84.83L62.59,84.83z"/>
	<path class="st2" d="M56.31,82.72l-0.01,0L56.31,82.72z"/>
</g>
</svg>
