<svg xmlns="http://www.w3.org/2000/svg" width="29.098" height="28.942" viewBox="0 0 29.098 28.942">
  <g id="Groupe_1" data-name="Groupe 1" transform="translate(-791.349 -125.434)">
    <path id="Tracé_2" data-name="Tracé 2" d="M856.626,190.274c-.812.812-1.876,1.065-2.377.565l-.936-.935,2.909-2.975.969.969C857.691,188.4,857.438,189.461,856.626,190.274Z" transform="translate(-37.001 -36.72)"/>
    <path id="Tracé_3" data-name="Tracé 3" d="M818.4,149.279l-6.036-6.037a11.463,11.463,0,1,0-9.548,5.122,11.66,11.66,0,0,0,6.65-2.136l6.027,6.027Zm-7.522-12.223a8.061,8.061,0,1,1-8.062-8.061A8.061,8.061,0,0,1,810.877,137.056Z" transform="translate(0 0)"/>
  </g>
</svg>
