<svg xmlns="http://www.w3.org/2000/svg" viewBox="0 0 205.17 246.77"><defs><style>.cls-1{fill:#8c1816;}.cls-2{fill:none;}.cls-3{fill:#fff;}</style></defs><title>logo 2</title><g id="Calque_9" data-name="Calque 9"><path class="cls-1" d="M223.76,536.11a9,9,0,0,1-8.95-9V520a8.95,8.95,0,0,1,17.9,0v7.21A9,9,0,0,1,223.76,536.11Zm0-23.11a7,7,0,0,0-6.95,7v7.21a6.95,6.95,0,0,0,13.9,0V520A7,7,0,0,0,223.76,513Z" transform="translate(-150.11 -317.42)"/><path class="cls-1" d="M277.64,536.11a9,9,0,0,1-8.95-9V520a8.95,8.95,0,1,1,17.89,0v7.21A9,9,0,0,1,277.64,536.11Zm0-23.11a7,7,0,0,0-6.95,7v7.21a6.95,6.95,0,1,0,13.89,0V520A7,7,0,0,0,277.64,513Z" transform="translate(-150.11 -317.42)"/><path class="cls-1" d="M223.76,377.13a9,9,0,0,1-8.95-8.95V361a9,9,0,0,1,17.9,0v7.22A9,9,0,0,1,223.76,377.13Zm0-23.11a7,7,0,0,0-6.95,6.94v7.22a7,7,0,0,0,13.9,0V361A7,7,0,0,0,223.76,354Z" transform="translate(-150.11 -317.42)"/><path class="cls-1" d="M277.42,377.13a9,9,0,0,1-8.94-8.95V361a8.95,8.95,0,0,1,17.89,0v7.22A9,9,0,0,1,277.42,377.13Zm0-23.11a6.94,6.94,0,0,0-6.94,6.94v7.22a6.95,6.95,0,1,0,13.89,0V361A7,7,0,0,0,277.42,354Z" transform="translate(-150.11 -317.42)"/><path class="cls-1" d="M258.45,378.74H243a3.19,3.19,0,0,1-3.19-3.19V365.27l1.79-.59,3.52,2.54-.16.66a5.19,5.19,0,0,0-.18,1.33,5.48,5.48,0,0,0,11,0,5.86,5.86,0,0,0-.1-1l-.12-.66,4.78-3.13,1.4.36v10.78A3.19,3.19,0,0,1,258.45,378.74ZM241.76,367.3v8.25a1.19,1.19,0,0,0,1.19,1.19h15.5a1.2,1.2,0,0,0,1.19-1.19V367.2l-2,1.3c0,.24,0,.48,0,.71a7.48,7.48,0,0,1-15,0,7.31,7.31,0,0,1,.1-1.14Z" transform="translate(-150.11 -317.42)"/><path class="cls-1" d="M261.64,357.07l-1.39-.46-20.49-.16V353.6a3.19,3.19,0,0,1,3.19-3.19h15.5a3.19,3.19,0,0,1,3.19,3.19Zm-19.88-2.6,17.88.14v-1a1.19,1.19,0,0,0-1.19-1.19H243a1.19,1.19,0,0,0-1.19,1.19Z" transform="translate(-150.11 -317.42)"/><path class="cls-1" d="M250.21,376.68a7.49,7.49,0,0,1-7.48-7.47,7.31,7.31,0,0,1,.1-1.14l-2.27-1.65L230.71,369v-11.2l9.89-3.33,20.14.2,9.74,3.28v11.2l-9.88-2.57-3,1.93c0,.24,0,.48,0,.71A7.48,7.48,0,0,1,250.21,376.68ZM241,364.25l4.11,3-.16.66a5.19,5.19,0,0,0-.18,1.33,5.48,5.48,0,0,0,11,0,5.86,5.86,0,0,0-.1-1l-.12-.66,4.78-3.13,8.24,2.14v-7.18l-8.23-2.76-19.33-.15-8.21,2.76v7.18Z" transform="translate(-150.11 -317.42)"/><path class="cls-1" d="M260.25,523.51l-4.79-3.13.12-.66a6.06,6.06,0,0,0,.1-1,5.48,5.48,0,0,0-11,0,5.19,5.19,0,0,0,.18,1.33l.16.65L242,523l-2.19-.12V512.58a3.19,3.19,0,0,1,3.19-3.19h15.5a3.19,3.19,0,0,1,3.19,3.19v10.56Zm-2.61-4.1,2,1.31v-8.14a1.19,1.19,0,0,0-1.19-1.19h-6.74a7.49,7.49,0,0,1,6,7.32C257.68,518.94,257.66,519.18,257.64,519.41Zm-14.69-8a1.19,1.19,0,0,0-1.19,1.19v8l1.07-.77a7.38,7.38,0,0,1,5.87-8.46Z" transform="translate(-150.11 -317.42)"/><path class="cls-1" d="M258.34,537.72h-15.5a3.19,3.19,0,0,1-3.19-3.19v-3.07l20.56-.17,1.32-.45v3.69A3.19,3.19,0,0,1,258.34,537.72Zm-16.69-4.27v1.08a1.19,1.19,0,0,0,1.19,1.19h15.5a1.19,1.19,0,0,0,1.19-1.19v-1.22Z" transform="translate(-150.11 -317.42)"/><path class="cls-1" d="M240.6,533.46l-9.89-3.33v-11.2l9.85,2.56,2.27-1.64a7.47,7.47,0,1,1,14.85-1.14c0,.23,0,.47,0,.7l3,1.94,9.88-2.57V530l-10.05,3.33Zm-7.89-4.77,8.21,2.77,19.4-.17,8.16-2.75v-7.17l-8.23,2.14-4.79-3.13.12-.66a6.06,6.06,0,0,0,.1-1,5.48,5.48,0,0,0-11,0,5.19,5.19,0,0,0,.18,1.33l.16.65-4.11,3-8.25-2.15Z" transform="translate(-150.11 -317.42)"/><path class="cls-1" d="M204.47,404l-.15-.34a15.74,15.74,0,0,0-7-8l-.11-.06a18.34,18.34,0,0,0-8.75-2,26.42,26.42,0,0,0-12.17,2.93,35.69,35.69,0,0,0-10.19,7.66,33.44,33.44,0,0,0-6.65,10.53,23.27,23.27,0,0,0-1.56,11.55A16.65,16.65,0,0,0,161,434.4a22.33,22.33,0,0,0,5.87,5.21q1,.63,2.13,1.23,2.49,1.38,5.25,2.6a57.29,57.29,0,0,1,7.55,4q4.67,3.1,4.67,7.42a8.63,8.63,0,0,1-2.1,5.8,18.17,18.17,0,0,1-5.15,4.13,26.35,26.35,0,0,1-5.89,2.35c-.2.05-.39.12-.58.16a25.77,25.77,0,0,1-6.06.84,14.32,14.32,0,0,1-2.81-.3,11.75,11.75,0,0,1-2.76-.89,5.81,5.81,0,0,1-2.1-1.66,4.32,4.32,0,0,1-.84-2.74,7.34,7.34,0,0,1,1-3.69,13.2,13.2,0,0,1,2.58-3.21,13.82,13.82,0,0,1,3.48-2.32,8.8,8.8,0,0,1,3.71-.89q.72,0,.72-.6a6.11,6.11,0,0,0-.12-1.2,8.2,8.2,0,0,0-1.26-2.28,14.07,14.07,0,0,0-2.1-2.21,12.08,12.08,0,0,0-2.57-1.68,6,6,0,0,0-2.58-.66,4.58,4.58,0,0,0-2,.54,9.64,9.64,0,0,0-2,1.38c-.64.56-1.21,1.12-1.73,1.67A12.68,12.68,0,0,0,154,449a19.83,19.83,0,0,0-3.48,7.55,14.18,14.18,0,0,0,.24,7.8,13.79,13.79,0,0,0,3.78,5.81,17.63,17.63,0,0,0,6.17,3.59,22.66,22.66,0,0,0,7.55,1.26,39,39,0,0,0,7.83-.82c.62-.13,1.25-.27,1.88-.44a31.53,31.53,0,0,0,9.11-3.89,29.92,29.92,0,0,0,7.31-6.47,20.78,20.78,0,0,0,4.2-8.87,11.47,11.47,0,0,0-1.62-9.23,19.18,19.18,0,0,0-7.25-6.12,49.37,49.37,0,0,0-6-2.45,41.56,41.56,0,0,1-6.35-2.76,17.67,17.67,0,0,1-5-4,8.23,8.23,0,0,1-1.91-4.32,12.12,12.12,0,0,1-.13-1.85,17.79,17.79,0,0,1,2.1-8.09c.43-.86.91-1.69,1.42-2.5a31.46,31.46,0,0,1,3.91-5,30.17,30.17,0,0,1,7.07-5.58,14.88,14.88,0,0,1,7.19-2.15,3.88,3.88,0,0,1,3.66,1.74,7.28,7.28,0,0,1,1,3.77,8.84,8.84,0,0,1-1.92,5.34q-1.92,2.57-4.13,5.21a61.89,61.89,0,0,0-4.14,5.51,10.84,10.84,0,0,0-1.92,6.12,4.57,4.57,0,0,0,.84,2.57,9.77,9.77,0,0,0,2,2.22,9.87,9.87,0,0,0,2.58,1.5,6.86,6.86,0,0,0,2.45.54q.6,0,.6-.84A13.87,13.87,0,0,1,195,427.4q1.92-3.48,4.14-7t4.13-6.95a13.84,13.84,0,0,0,1.92-6.71A6.54,6.54,0,0,0,204.47,404Z" transform="translate(-150.11 -317.42)"/><path class="cls-1" d="M355.09,434.79a2.08,2.08,0,0,0-.89-.78,1.56,1.56,0,0,0-1.2,0,1.44,1.44,0,0,0-.9,1,56.1,56.1,0,0,1-7,12.89,72.59,72.59,0,0,1-8.93,10l.24-1.07q1.31-5.64,2.93-12t3.54-12.71a23.08,23.08,0,0,1,1.2-3,3.73,3.73,0,0,0,.48-1.26,1.13,1.13,0,0,0-.48-1.14,23.47,23.47,0,0,0-3.6-2.22,9.28,9.28,0,0,0-4.19-1.26q-1.08,0-1.68,1.56-1,2.16-1.74,4.32c-.35,1-.66,2-1,3-.14.49-.29,1-.42,1.47q-.12.48-.24.9t-.24.9c-.72,2.08-1.68,4.79-2.87,8.15s-2.52,6.61-4,9.77a58.33,58.33,0,0,1-4.44,8.15q-2.26,3.42-4.19,3.42a1.73,1.73,0,0,1-1.62-1.14,3.34,3.34,0,0,1-.28-1.37,5.14,5.14,0,0,1,.05-.85,7.5,7.5,0,0,1,.17-1c.48-2.16,1-4.51,1.62-7.07s1.26-5.15,2-7.79,1.5-5.26,2.33-7.85,1.7-5.06,2.58-7.37a7.53,7.53,0,0,1,.84-2,1.19,1.19,0,0,0-.36-1.74q-.6-.48-1.5-1.08a19.25,19.25,0,0,0-2-1.14,15.18,15.18,0,0,0-2.22-.9,6.72,6.72,0,0,0-2-.36q-1.08,0-1.8,1.56A113.92,113.92,0,0,0,308.13,440c-.24.59-.48,1.2-.74,1.83q-1.56,3.84-3.48,7.79t-4.19,7.73l-.2.32a37.54,37.54,0,0,1-4.72,6.22c-.88.88-1.48,1.22-1.79,1s-.4-1-.24-2.34c.55-4.24,1.42-9.29,2.57-15.16s2.48-11.79,4-17.74,3-11.49,4.67-16.61a67.12,67.12,0,0,1,4.74-11.74,7.5,7.5,0,0,1,.72-1q.36-.42.84-1a.81.81,0,0,0,.24-.6q0-.72-1.32-1.56a19.81,19.81,0,0,0-3.06-1.56c-1.16-.47-2.32-.89-3.47-1.25a9.78,9.78,0,0,0-2.58-.54c-.8,0-1.72,1.08-2.76,3.23A69.13,69.13,0,0,0,294,405.6q-1.74,5.4-3.48,12.29T287.37,432q-1.44,7.26-2.57,14.39c-.18,1.08-.34,2.13-.49,3.16-.07.16-.15.33-.23.49-.8,1.65-1.65,3.25-2.55,4.82l-.07.11c-.57,1-1.15,2-1.76,2.92a38,38,0,0,1-5.15,6.54q-1,1-1.44.72t-.24-1.56q.48-3.12,1.38-7c.51-2.22,1.07-4.52,1.67-6.88l0-.1c.1-.37.19-.74.29-1.12q1.08-4.18,2.33-8.45t2.7-8.09c.24-.55.46-1.08.66-1.55s.42-1,.66-1.44a3,3,0,0,0,.36-1.32,2.13,2.13,0,0,0-1-1.62,13.6,13.6,0,0,0-2.4-1.44,16,16,0,0,0-2.69-1,8.32,8.32,0,0,0-1.92-.36c-1,0-3.22,0-3.63.4a24.18,24.18,0,0,0-4,4.22,75.33,75.33,0,0,0-4.2,6.32c-1.39,2.24-4.78,7.58-4.78,7.58v0c.2-.69.41-1.38.62-2.07q1.5-4.9,3.17-9.22a12.76,12.76,0,0,1,1-2,1.19,1.19,0,0,0-.36-1.74q-.6-.48-1.5-1.08a15.29,15.29,0,0,0-2-1.14,18,18,0,0,0-2.28-.9,6.72,6.72,0,0,0-2-.36q-1.08,0-1.68,1.56a91.88,91.88,0,0,0-3.53,9.41c-.7,2.18-1.34,4.41-2,6.65v0c-.34,1.24-.67,2.49-1,3.75l-.06.24c-.75,1.72-1.54,3.46-2.4,5.21a75.75,75.75,0,0,1-4.37,7.85,42,42,0,0,1-5,6.54,1.81,1.81,0,0,1-1.43.6q-.6-.12-.36-1.44.6-3.24,1.49-7.37t2.1-8.57c.75-2.79,1.57-5.58,2.43-8.37,0,0,0-.05,0-.08s.09-.28.13-.42q1.38-4.44,2.94-8.39a7.21,7.21,0,0,1,.84-2,1.21,1.21,0,0,0-.36-1.74c-.41-.32-.9-.68-1.5-1.08a18.41,18.41,0,0,0-2-1.14,15.18,15.18,0,0,0-2.22-.9,6.72,6.72,0,0,0-2-.36c-.72,0-1.31.52-1.79,1.56q-.84,1.92-1.56,4c-.48,1.36-1,2.75-1.44,4.19-.18.54-.41,1.22-.68,2.05l0,.09c-.22.64-.46,1.36-.73,2.18-.64,1.92-1.4,4.05-2.28,6.41s-1.84,4.79-2.87,7.31-2.1,4.8-3.18,6.83a30.63,30.63,0,0,1-3.24,5c-1.07,1.32-2.09,2-3.05,2a1.66,1.66,0,0,1-1.5-1.14,4.92,4.92,0,0,1-.06-3.18c.4-2.16.9-4.51,1.5-7.07s1.26-5.15,2-7.79,1.49-5.26,2.33-7.85,1.7-5.06,2.58-7.37a11.43,11.43,0,0,1,.71-1.52l0-.06c.07-.13.14-.27.22-.4a1.19,1.19,0,0,0-.36-1.74q-.6-.48-1.5-1.08a18.41,18.41,0,0,0-2-1.14l-.24-.11-.07,0a16.36,16.36,0,0,0-1.9-.76,6.72,6.72,0,0,0-2-.36q-1.08,0-1.8,1.56a115.73,115.73,0,0,0-5.51,16.12,164.74,164.74,0,0,0-3.72,17.44,16.25,16.25,0,0,0-.3,2.28,16.25,16.25,0,0,1-.3,2.28,5.41,5.41,0,0,0,.54,2.76,9.16,9.16,0,0,0,1.86,2.63,10.22,10.22,0,0,0,2.82,2,7.46,7.46,0,0,0,3.29.78c2.72,0,5.17-1.34,7.37-4a50.33,50.33,0,0,0,6.06-9.53,1,1,0,0,0-.12.42,1,1,0,0,1-.12.42q-.12,1.2-.24,2.28t-.36,2.28a8.16,8.16,0,0,0,1.62,5.51,5.77,5.77,0,0,0,5,2.64,8.23,8.23,0,0,0,5.09-2,28.35,28.35,0,0,0,5-5.21,58.11,58.11,0,0,0,4.05-6.25c-.43,2.71-.75,5.3-.93,7.75a3.22,3.22,0,0,0,.77,2,9.45,9.45,0,0,0,1.92,1.86,11.42,11.42,0,0,0,2.46,1.38,6.41,6.41,0,0,0,2.4.54,2.62,2.62,0,0,0,1-.18c.27-.12.41-.5.41-1.14a24.56,24.56,0,0,1,1-5.15q.9-3.12,2.34-6.78t3.24-7.61q1.74-3.84,3.72-7.45v0l.1-.2q2-3.7,4.14-6.89a39.44,39.44,0,0,1,4.13-5.34c-.88,2.56-1.73,5.3-2.57,8.22-.55,1.88-1.05,3.8-1.54,5.73v0c-.27,1.05-.54,2.11-.79,3.18q-1.08,4.55-1.86,9t-1.26,8.27a5.2,5.2,0,0,0,1.8,4.37,7.11,7.11,0,0,0,5.16,2,8.25,8.25,0,0,0,5.09-2,28.31,28.31,0,0,0,5-5.21,54.83,54.83,0,0,0,3.41-5.12c0,.21,0,.42-.05.62q-.12,1.8-.12,3.84a12.58,12.58,0,0,0,.54,3.77,6.5,6.5,0,0,0,1.86,2.94,5.48,5.48,0,0,0,3.83,1.2,6.81,6.81,0,0,0,.78-.05h0a8.46,8.46,0,0,0,4.34-2,27.65,27.65,0,0,0,3.53-3.5h0l.66-.8,0,0c.22-.27.44-.56.66-.85l0,0c.8-1.06,1.58-2.18,2.34-3.37s1.5-2.45,2.21-3.76c.26-.48.52-1,.77-1.44-.18,1-.37,2.08-.53,3.11q-.12,1.2-.24,2.28-.06.54-.15,1.11t-.21,1.17a5,5,0,0,0,0,.67,5.86,5.86,0,0,0,.55,2.09,9.16,9.16,0,0,0,1.86,2.63,10.22,10.22,0,0,0,2.82,2,7.49,7.49,0,0,0,3.29.78q4.08,0,7.38-4A43.8,43.8,0,0,0,324.7,459c.23-.44.45-.9.67-1.36-.2.92-.4,1.83-.6,2.72s-.4,1.76-.6,2.62q-.6,2.58-1.2,5.21-1.92,1.32-4.13,2.64t-4.38,2.76c-1.44,1-2.84,1.95-4.19,3a25.56,25.56,0,0,0-3.72,3.48,18.74,18.74,0,0,0-2.34,3.54,13.87,13.87,0,0,0-1.38,4.13,14.18,14.18,0,0,0-.19,2.14,13.64,13.64,0,0,0,.13,2.12,8.58,8.58,0,0,0,1.62,3.89,8.24,8.24,0,0,0,3.42,2.88l.48.19a10,10,0,0,0,3.77.77q7.08,0,10.61-3.66a25.38,25.38,0,0,0,5.58-9.65q2-5.64,3.65-11.39t2.94-11.62a87.25,87.25,0,0,0,11.38-11.63,55.9,55.9,0,0,0,8.87-15.7A1.19,1.19,0,0,0,355.09,434.79ZM319.2,481q-1.14,3.71-2.22,6.83a18.38,18.38,0,0,1-1,2.29,9.31,9.31,0,0,1-1.8,2.44c-.13.13-.26.24-.39.35a4.44,4.44,0,0,1-2.78,1.15,3,3,0,0,1-2.64-1.44,6.15,6.15,0,0,1-1.08-3c0-.24,0-.48,0-.71a8.22,8.22,0,0,1,1.29-4.57,21.41,21.41,0,0,1,3.71-4.43,34.83,34.83,0,0,1,4.74-3.66c1.68-1.08,3.19-2.09,4.55-3.05Q320.33,477.28,319.2,481Z" transform="translate(-150.11 -317.42)"/><path class="cls-2" d="M169,455.45a5.81,5.81,0,0,0-2.45.61,10.88,10.88,0,0,0-2.71,1.81,10.28,10.28,0,0,0-2,2.49,4.39,4.39,0,0,0-.63,2.2,1.57,1.57,0,0,0,.21.89,2.76,2.76,0,0,0,1,.8,8.88,8.88,0,0,0,2.06.66,11.55,11.55,0,0,0,2.23.24,22.46,22.46,0,0,0,4.76-.62,79.76,79.76,0,0,1-2.15-9.11Z" transform="translate(-150.11 -317.42)"/><path class="cls-2" d="M297.56,481.65Z" transform="translate(-150.11 -317.42)"/><path class="cls-1" d="M172.27,464.34l.3-.09c.28-.07.56-.16.83-.25a79.57,79.57,0,0,1-2.17-9.25,3.84,3.84,0,0,1-1.91.67,79.76,79.76,0,0,0,2.15,9.11l.58-.13Z" transform="translate(-150.11 -317.42)"/><path class="cls-1" d="M222.84,431.13l0,0a43.52,43.52,0,0,0,4.65,3.61l0-.08a41.43,41.43,0,0,1-4.65-3.59Z" transform="translate(-150.11 -317.42)"/><path class="cls-1" d="M240.79,440.64a40.77,40.77,0,0,0,4.69.86v0a38.63,38.63,0,0,1-4.68-.89Z" transform="translate(-150.11 -317.42)"/><path class="cls-1" d="M277.41,452l0,.13c.76.69,1.49,1.4,2.2,2.14a.75.75,0,0,1,.07-.12C278.94,453.39,278.19,452.68,277.41,452Z" transform="translate(-150.11 -317.42)"/><path class="cls-1" d="M211,403.18a1.77,1.77,0,0,1,0-.23A1.77,1.77,0,0,0,211,403.18Z" transform="translate(-150.11 -317.42)"/><path class="cls-1" d="M210.45,411.39l.18.6Z" transform="translate(-150.11 -317.42)"/><path class="cls-1" d="M211.23,413.83c.09.27.19.54.29.81C211.41,414.37,211.32,414.1,211.23,413.83Z" transform="translate(-150.11 -317.42)"/><path class="cls-1" d="M212.26,416.48c.16.37.33.75.51,1.12C212.59,417.23,212.42,416.85,212.26,416.48Z" transform="translate(-150.11 -317.42)"/><path class="cls-1" d="M213.24,418.57c.34.68.7,1.36,1.08,2C213.94,419.93,213.58,419.25,213.24,418.57Z" transform="translate(-150.11 -317.42)"/><polygon class="cls-1" points="58.77 82.58 58.77 82.58 58.9 67.11 58.77 82.58 58.77 82.58"/><path class="cls-1" d="M290.57,481.7c0,.41,0,.82,0,1.23s0,.75-.05,1.19v0c0-.44,0-.81.05-1.19s0-.82,0-1.23v0Z" transform="translate(-150.11 -317.42)"/><path class="cls-1" d="M210.91,401.6c0-.15,0-.29,0-.44C210.9,401.31,210.9,401.45,210.91,401.6Z" transform="translate(-150.11 -317.42)"/><path class="cls-1" d="M214.73,421.28c-.12-.19-.24-.38-.35-.58.11.2.22.39.34.58Z" transform="translate(-150.11 -317.42)"/><path class="cls-1" d="M290.26,476.74c-.15-1.25-.36-2.48-.63-3.71h0C289.87,474.26,290.11,475.5,290.26,476.74Z" transform="translate(-150.11 -317.42)"/><path class="cls-1" d="M209,402.71c0,.13,0,.26,0,.39C209,403,209,402.84,209,402.71Z" transform="translate(-150.11 -317.42)"/><path class="cls-1" d="M290.5,513.39V520c.05.86.07,1.64.07,2.36a39.85,39.85,0,1,1-78.47-9.76l.19-.75-.67-.37a81.55,81.55,0,0,1-33.2-34.77c-.53.13-1.08.26-1.71.39l-.31.06A83.47,83.47,0,0,0,210,512.84a41.84,41.84,0,1,0,82.59,9.51c0-.76,0-1.57-.07-2.42v-7.7l-.5.3Z" transform="translate(-150.11 -317.42)"/><path class="cls-1" d="M209.11,371.72l0-2.32a83.66,83.66,0,0,0-24.2,21.43,26.62,26.62,0,0,1,2.68-.2A81.76,81.76,0,0,1,209.11,371.72Z" transform="translate(-150.11 -317.42)"/><path class="cls-1" d="M292.48,479l0-.36Z" transform="translate(-150.11 -317.42)"/><path class="cls-1" d="M292.2,476.11v0Z" transform="translate(-150.11 -317.42)"/><path class="cls-1" d="M209.26,405.63c0,.17.05.34.07.52C209.31,406,209.28,405.8,209.26,405.63Z" transform="translate(-150.11 -317.42)"/><path class="cls-1" d="M290.3,477.08c.08.69.15,1.39.19,2.09C290.45,478.47,290.37,477.77,290.3,477.08Z" transform="translate(-150.11 -317.42)"/><path class="cls-1" d="M209.76,408.57l.12.55Z" transform="translate(-150.11 -317.42)"/><path class="cls-1" d="M241.37,438.73a38.52,38.52,0,0,0,4.64.82v0a42.2,42.2,0,0,1-4.62-.85Z" transform="translate(-150.11 -317.42)"/><path class="cls-1" d="M223.73,429.29a40.24,40.24,0,0,0,4.4,3.53l0-.09a39.05,39.05,0,0,1-4.4-3.5Z" transform="translate(-150.11 -317.42)"/><path class="cls-1" d="M211,403.18a39.43,39.43,0,0,0,6.54,18.88l.05,0A39.15,39.15,0,0,1,211,403.18Z" transform="translate(-150.11 -317.42)"/><path class="cls-1" d="M277.93,449.92c.93.79,1.82,1.63,2.67,2.5a.41.41,0,0,0,0-.09c-.86-.87-1.76-1.71-2.69-2.5Z" transform="translate(-150.11 -317.42)"/><path class="cls-1" d="M211,403c0-.45-.06-.9-.08-1.35C210.93,402.05,211,402.5,211,403Z" transform="translate(-150.11 -317.42)"/><path class="cls-1" d="M211.14,368.23,210.88,400c0,.38,0,.77,0,1.15,0-.38,0-.77,0-1.15l.33-40.43v-.31c0-.11,0-.22,0-.32l0-.88a39.84,39.84,0,0,1,79.66,1.2,40.06,40.06,0,0,1-1.28,10l-.2.75.68.37a80.91,80.91,0,0,1,40.54,59c.11-.35.23-.7.35-1,.32-.9.68-1.81,1-2.71A82.89,82.89,0,0,0,291.73,369a41.84,41.84,0,1,0-82.46-12l-.06,1.84c0,.13,0,.26,0,.39v.31l-.08,9.82.49-.3Z" transform="translate(-150.11 -317.42)"/><path class="cls-1" d="M223.65,429.45l-.08.16,0,.08a40.05,40.05,0,0,0,4.46,3.54l.14-.41a40.24,40.24,0,0,1-4.4-3.53S223.68,429.4,223.65,429.45Z" transform="translate(-150.11 -317.42)"/><path class="cls-1" d="M227.59,434.43l-.09.27a41.43,41.43,0,0,1-4.65-3.59c.05-.13.11-.28.18-.42a41.07,41.07,0,0,0,4.61,3.6l0,.06Z" transform="translate(-150.11 -317.42)"/><path class="cls-1" d="M240.81,440.57a38.63,38.63,0,0,0,4.68.89l.12-.44a41,41,0,0,1-4.68-.86Z" transform="translate(-150.11 -317.42)"/><path class="cls-1" d="M241.24,439.14a42.76,42.76,0,0,0,4.65.86l.12-.45a38.52,38.52,0,0,1-4.64-.82C241.33,438.87,241.29,439,241.24,439.14Z" transform="translate(-150.11 -317.42)"/><path class="cls-1" d="M277.88,450.12l0,.1,0,.13c.89.77,1.75,1.58,2.58,2.42l.19-.35c-.85-.87-1.74-1.71-2.67-2.5Z" transform="translate(-150.11 -317.42)"/><path class="cls-1" d="M277.41,452c.78.69,1.53,1.4,2.24,2.15l.08-.14,0-.06,0-.05.06-.1c-.74-.78-1.53-1.52-2.33-2.23C277.49,451.7,277.45,451.85,277.41,452Z" transform="translate(-150.11 -317.42)"/><path class="cls-1" d="M209.88,409.12c.17.76.36,1.52.57,2.27C210.24,410.64,210.05,409.88,209.88,409.12Z" transform="translate(-150.11 -317.42)"/><polygon class="cls-1" points="59 54.3 59 54.3 58.9 67.11 59 54.3"/><path class="cls-1" d="M214.32,420.59l.06.11Z" transform="translate(-150.11 -317.42)"/><path class="cls-1" d="M210.63,412c.18.62.39,1.23.6,1.84C211,413.22,210.81,412.61,210.63,412Z" transform="translate(-150.11 -317.42)"/><path class="cls-1" d="M209,403.1c.07.85.16,1.69.27,2.53C209.15,404.79,209.06,404,209,403.1Z" transform="translate(-150.11 -317.42)"/><path class="cls-1" d="M209.33,406.15c.12.81.26,1.62.43,2.42C209.59,407.77,209.45,407,209.33,406.15Z" transform="translate(-150.11 -317.42)"/><path class="cls-1" d="M208.88,400q0,1.35.09,2.7Q208.88,401.36,208.88,400Z" transform="translate(-150.11 -317.42)"/><path class="cls-1" d="M211.52,414.64c.23.62.48,1.23.74,1.84C212,415.87,211.75,415.26,211.52,414.64Z" transform="translate(-150.11 -317.42)"/><path class="cls-1" d="M212.77,417.6c.15.33.31.65.47,1C213.08,418.25,212.92,417.93,212.77,417.6Z" transform="translate(-150.11 -317.42)"/><path class="cls-1" d="M209.11,371.72,209,384.53,208.88,400h0q0,1.35.09,2.7c0,.13,0,.26,0,.39.07.85.16,1.69.27,2.53,0,.17.05.34.07.52.12.81.26,1.62.43,2.42l.12.55c.17.76.36,1.52.57,2.27l.18.6c.18.62.39,1.23.6,1.84.09.27.18.54.29.81.23.62.48,1.23.74,1.84.16.37.33.75.51,1.12s.31.65.47,1c.34.68.7,1.36,1.08,2l.06.11c.11.2.23.39.35.58l.61.1a40.92,40.92,0,0,1-6-21.31h0V400h1v0a39.71,39.71,0,0,0,6.43,21.77c.25.08.49.16.73.26A39.43,39.43,0,0,1,211,403.18a1.77,1.77,0,0,1,0-.23c0-.45-.06-.9-.08-1.35,0-.15,0-.29,0-.44,0-.38,0-.77,0-1.15l.26-31.78-1.52.87-.49.3,0,2.32Z" transform="translate(-150.11 -317.42)"/><path class="cls-1" d="M223.46,429.81l0,0h0a9.08,9.08,0,0,0-.41.84,41.07,41.07,0,0,0,4.61,3.6l.35-1.06a40.05,40.05,0,0,1-4.46-3.54Z" transform="translate(-150.11 -317.42)"/><path class="cls-1" d="M241.16,439.4l-.06.19-.07.25,0,.05h0c0,.09,0,.18-.08.26a41,41,0,0,0,4.68.86c.06-.23.12-.46.19-.7l.09-.32a42.76,42.76,0,0,1-4.65-.86A2.58,2.58,0,0,1,241.16,439.4Z" transform="translate(-150.11 -317.42)"/><path class="cls-1" d="M216.81,421.8A39.71,39.71,0,0,1,210.38,400v0h-1v.05h0a40.92,40.92,0,0,0,6,21.31c.36.08.74.17,1.14.3C216.59,421.71,216.7,421.76,216.81,421.8Z" transform="translate(-150.11 -317.42)"/><path class="cls-1" d="M292.45,478.6c-.06-.83-.14-1.66-.25-2.49C292.31,476.94,292.39,477.77,292.45,478.6Z" transform="translate(-150.11 -317.42)"/><path class="cls-1" d="M291.61,472.73h0c.25,1.11.46,2.23.61,3.36C292.05,475,291.85,473.84,291.61,472.73Z" transform="translate(-150.11 -317.42)"/><path class="cls-1" d="M307.4,500.73l-.42-.17a9.59,9.59,0,0,1-1.26-.69,80.94,80.94,0,0,1-13.22,10V484.18c0-.39.05-.79.06-1.18s0-.87,0-1.31q0-1.37-.09-2.73.09,1.37.09,2.73c0,.44,0,.88,0,1.31s0,.79-.06,1.18v28.05a82.4,82.4,0,0,0,15.15-11.41l-.11,0Z" transform="translate(-150.11 -317.42)"/><path class="cls-1" d="M290.49,479.17c.05.82.08,1.66.08,2.49C290.57,480.83,290.54,480,290.49,479.17Z" transform="translate(-150.11 -317.42)"/><polygon class="cls-1" points="140.39 195.97 140.39 169.68 140.39 195.97 140.39 195.97"/><path class="cls-1" d="M290.26,476.74c0,.11,0,.23,0,.34C290.28,477,290.28,476.85,290.26,476.74Z" transform="translate(-150.11 -317.42)"/><path class="cls-1" d="M292.55,483c0-.43,0-.87,0-1.31q0-1.37-.09-2.73l0-.36c-.06-.83-.14-1.66-.25-2.49v0c-.15-1.13-.36-2.25-.61-3.36l-.46.1a42.47,42.47,0,0,1,.95,8.86h-1a40.38,40.38,0,0,0-1-8.69l-.48,0c.27,1.23.48,2.46.63,3.71,0,.11,0,.23,0,.34.07.69.15,1.39.19,2.09s.08,1.66.08,2.49v0c0,.41,0,.82,0,1.23s0,.75-.05,1.19v29.27l1.5-.86.5-.3V484.18C292.52,483.79,292.54,483.39,292.55,483Zm-.5,0-1,0c0-.42,0-.83,0-1.25h1C292.07,482.13,292.06,482.56,292.05,483Z" transform="translate(-150.11 -317.42)"/><path class="cls-1" d="M290.33,473h-.22a40.38,40.38,0,0,1,1,8.69h1a42.47,42.47,0,0,0-.95-8.86c-.24.05-.48.11-.73.14Z" transform="translate(-150.11 -317.42)"/><path class="cls-1" d="M291.57,481.7h-.5c0,.42,0,.83,0,1.25l1,0c0-.42,0-.85,0-1.28Z" transform="translate(-150.11 -317.42)"/><path class="cls-1" d="M277.52,451.56c.8.71,1.59,1.45,2.33,2.23l.56-1c-.83-.84-1.69-1.65-2.58-2.42C277.72,450.75,277.62,451.16,277.52,451.56Z" transform="translate(-150.11 -317.42)"/><path class="cls-3" d="M229.53,434.92h0Z" transform="translate(-150.11 -317.42)"/><path class="cls-3" d="M276,449.49h0Z" transform="translate(-150.11 -317.42)"/></g></svg>