<svg xmlns="http://www.w3.org/2000/svg" viewBox="0 0 213.54 213.54"><defs><style>.cls-1{fill:#8c1816;}.cls-2{fill:#fff;}</style></defs><title>LOGO 1</title><g id="Calque_6" data-name="Calque 6"><circle class="cls-1" cx="106.77" cy="106.77" r="106.77"/><rect class="cls-2" x="71.2" y="172.24" width="16.2" height="23.56" rx="8.1" ry="8.1"/><path class="cls-1" d="M570,234.91a9.11,9.11,0,0,1-9.1-9.1v-7.36a9.1,9.1,0,0,1,18.2,0v7.36A9.11,9.11,0,0,1,570,234.91Zm0-23.56a7.11,7.11,0,0,0-7.1,7.1v7.36a7.1,7.1,0,1,0,14.2,0v-7.36A7.1,7.1,0,0,0,570,211.35Z" transform="translate(-490.69 -38.1)"/><rect class="cls-2" x="126.14" y="172.24" width="16.2" height="23.56" rx="8.1" ry="8.1"/><path class="cls-1" d="M624.93,234.91a9.11,9.11,0,0,1-9.1-9.1v-7.36a9.1,9.1,0,0,1,18.2,0v7.36A9.11,9.11,0,0,1,624.93,234.91Zm0-23.56a7.1,7.1,0,0,0-7.1,7.1v7.36a7.1,7.1,0,0,0,14.2,0v-7.36A7.1,7.1,0,0,0,624.93,211.35Z" transform="translate(-490.69 -38.1)"/><rect class="cls-2" x="71.2" y="20.17" width="16.2" height="23.56" rx="8.1" ry="8.1"/><path class="cls-1" d="M570,82.83a9.11,9.11,0,0,1-9.1-9.1V66.37a9.1,9.1,0,1,1,18.2,0v7.36A9.11,9.11,0,0,1,570,82.83Zm0-23.56a7.11,7.11,0,0,0-7.1,7.1v7.36a7.1,7.1,0,1,0,14.2,0V66.37A7.1,7.1,0,0,0,570,59.27Z" transform="translate(-490.69 -38.1)"/><rect class="cls-2" x="125.92" y="20.17" width="16.2" height="23.56" rx="8.1" ry="8.1"/><path class="cls-1" d="M624.71,82.83a9.11,9.11,0,0,1-9.1-9.1V66.37a9.1,9.1,0,1,1,18.2,0v7.36A9.11,9.11,0,0,1,624.71,82.83Zm0-23.56a7.1,7.1,0,0,0-7.1,7.1v7.36a7.1,7.1,0,1,0,14.2,0V66.37A7.1,7.1,0,0,0,624.71,59.27Z" transform="translate(-490.69 -38.1)"/><path class="cls-2" d="M603.44,73.56a6.89,6.89,0,0,1,.12,1.21,6.6,6.6,0,1,1-13.2,0,6.5,6.5,0,0,1,.21-1.6L588,71.29l-.63.21v9.74a2.23,2.23,0,0,0,2.23,2.23h15.8a2.23,2.23,0,0,0,2.24-2.23V71l-.22-.06Z" transform="translate(-490.69 -38.1)"/><path class="cls-1" d="M605.36,84.47h-15.8a3.23,3.23,0,0,1-3.23-3.23V70.78l1.8-.6,3.57,2.58-.16.65a5.41,5.41,0,0,0-.18,1.36,5.6,5.6,0,1,0,11.2,0,6.19,6.19,0,0,0-.1-1l-.13-.66,4.87-3.18,1.39.37v11A3.23,3.23,0,0,1,605.36,84.47Zm-17-11.68v8.45a1.23,1.23,0,0,0,1.23,1.23h15.8a1.23,1.23,0,0,0,1.23-1.23V72.69L604.52,74c0,.25,0,.49,0,.73a7.6,7.6,0,1,1-15.2,0,6.77,6.77,0,0,1,.1-1.17Z" transform="translate(-490.69 -38.1)"/><path class="cls-2" d="M607.38,60.91l.22.07V58.86a2.24,2.24,0,0,0-2.24-2.24h-15.8a2.23,2.23,0,0,0-2.23,2.24v1.9h0Z" transform="translate(-490.69 -38.1)"/><path class="cls-1" d="M608.59,62.38l-1.38-.47-20.88-.16v-2.9a3.23,3.23,0,0,1,3.23-3.23h15.8a3.23,3.23,0,0,1,3.23,3.23Zm-20.26-2.62,18.26.14v-1a1.24,1.24,0,0,0-1.23-1.23h-15.8a1.24,1.24,0,0,0-1.23,1.23Z" transform="translate(-490.69 -38.1)"/><path class="cls-2" d="M607.6,61l-.22-.07-20-.15h0l-9.23,3.1v9.37l9.23-2.4h0l3.24,2.34a6.5,6.5,0,0,0-.21,1.6,6.6,6.6,0,1,0,13.2,0,6.89,6.89,0,0,0-.12-1.21L607.38,71l.22.06,9,2.34V64Z" transform="translate(-490.69 -38.1)"/><path class="cls-1" d="M597,82.37a7.61,7.61,0,0,1-7.6-7.6,6.77,6.77,0,0,1,.1-1.17l-2.34-1.68-10,2.6V63.14l10.08-3.38,20.37.15,10.07,3.39V74.68l-10.06-2.62-3,2c0,.25,0,.49,0,.73A7.61,7.61,0,0,1,597,82.37Zm-9.43-12.63,4.17,3-.16.65a5.41,5.41,0,0,0-.18,1.36,5.6,5.6,0,1,0,11.2,0,6.19,6.19,0,0,0-.1-1l-.13-.66,4.87-3.18,8.41,2.19V64.73l-8.4-2.82-19.72-.15-8.4,2.82v7.36Z" transform="translate(-490.69 -38.1)"/><path class="cls-2" d="M590.57,218.79a6.59,6.59,0,1,1,13-1.61,6.91,6.91,0,0,1-.12,1.22l3.94,2.58.22-.06v-10a2.23,2.23,0,0,0-2.24-2.23h-15.8a2.23,2.23,0,0,0-2.23,2.23v9.49l.9.05Z" transform="translate(-490.69 -38.1)"/><path class="cls-1" d="M607.2,222.06l-4.87-3.19.13-.65a6.29,6.29,0,0,0,.1-1,5.6,5.6,0,1,0-11.2,0,5.47,5.47,0,0,0,.18,1.36l.16.65-3.17,2.29-2.2-.12V210.93a3.23,3.23,0,0,1,3.23-3.23h15.8a3.23,3.23,0,0,1,3.23,3.23v10.76Zm-2.68-4.15,2.07,1.36v-8.34a1.24,1.24,0,0,0-1.23-1.23h-7.08a7.62,7.62,0,0,1,6.28,7.49C604.56,217.42,604.54,217.67,604.52,217.91Zm-15-8.21a1.24,1.24,0,0,0-1.23,1.23v8.24l1.13-.81a6.77,6.77,0,0,1-.1-1.17,7.62,7.62,0,0,1,6.28-7.49Z" transform="translate(-490.69 -38.1)"/><path class="cls-2" d="M587.22,231.2h0v2.12a2.23,2.23,0,0,0,2.23,2.23h15.8a2.23,2.23,0,0,0,2.24-2.23V231l-.22.08Z" transform="translate(-490.69 -38.1)"/><path class="cls-1" d="M605.25,236.55h-15.8a3.23,3.23,0,0,1-3.23-3.23v-3.11l20.95-.18,1.32-.44v3.73A3.24,3.24,0,0,1,605.25,236.55Zm-17-4.36v1.13a1.23,1.23,0,0,0,1.23,1.23h15.8a1.24,1.24,0,0,0,1.24-1.23v-1.27Z" transform="translate(-490.69 -38.1)"/><path class="cls-2" d="M607.6,220.92l-.22.06-3.94-2.58a6.91,6.91,0,0,0,.12-1.22,6.6,6.6,0,1,0-13,1.61l-3.24,2.34h0l-9.23-2.4v9.37l9.23,3.1h0l20-.15.22-.08,9-3v-9.37Z" transform="translate(-490.69 -38.1)"/><path class="cls-1" d="M587.17,232.2l-10.08-3.38V217.43l10,2.61,2.34-1.68a6.77,6.77,0,0,1-.1-1.17,7.6,7.6,0,1,1,15.2,0c0,.23,0,.48,0,.72l3,2,10.06-2.62v11.38l-10.23,3.39Zm-8.08-4.82,8.4,2.82,19.79-.17,8.33-2.8v-7.36l-8.41,2.19-4.87-3.19.13-.65a6.29,6.29,0,0,0,.1-1,5.6,5.6,0,1,0-11.2,0,5.47,5.47,0,0,0,.18,1.36l.16.65-4.17,3-8.44-2.2Z" transform="translate(-490.69 -38.1)"/><path class="cls-2" d="M556.12,113.52c0-.1-.09-.2-.13-.3a13.51,13.51,0,0,0-6.06-6.86l-.09,0a15.72,15.72,0,0,0-7.52-1.7,22.49,22.49,0,0,0-4,.34,23.45,23.45,0,0,0-6.51,2.18,30.47,30.47,0,0,0-8.75,6.58,28.64,28.64,0,0,0-5.72,9.05,20.07,20.07,0,0,0-1.34,9.92,14.29,14.29,0,0,0,2.73,7,19,19,0,0,0,5.05,4.48c.59.36,1.2.71,1.82,1.06,1.43.79,2.93,1.54,4.51,2.23a48.38,48.38,0,0,1,6.49,3.44c2.68,1.79,4,3.91,4,6.38a7.45,7.45,0,0,1-1.8,5,15.69,15.69,0,0,1-4.43,3.54,22.38,22.38,0,0,1-5.06,2l-.5.14a22.24,22.24,0,0,1-5.21.72,12.51,12.51,0,0,1-2.42-.25,10.29,10.29,0,0,1-2.37-.77,5,5,0,0,1-1.8-1.43,3.7,3.7,0,0,1-.72-2.35,6.25,6.25,0,0,1,.88-3.17,11.42,11.42,0,0,1,2.21-2.76,11.55,11.55,0,0,1,3-2,7.57,7.57,0,0,1,3.19-.77c.41,0,.62-.17.62-.51a5.89,5.89,0,0,0-.1-1,7.3,7.3,0,0,0-1.08-2,12,12,0,0,0-1.81-1.91,10.23,10.23,0,0,0-2.21-1.44,5.15,5.15,0,0,0-2.22-.57,3.93,3.93,0,0,0-1.75.47,8.28,8.28,0,0,0-1.75,1.18,20.66,20.66,0,0,0-1.49,1.44,10.93,10.93,0,0,0-1.08,1.34,17,17,0,0,0-3,6.49,12.15,12.15,0,0,0,.21,6.7,11.7,11.7,0,0,0,3.24,5,15.3,15.3,0,0,0,5.3,3.09,19.56,19.56,0,0,0,6.49,1.08,33.11,33.11,0,0,0,6.73-.71c.54-.11,1.08-.23,1.62-.37a27.6,27.6,0,0,0,7.82-3.34,25.54,25.54,0,0,0,6.29-5.57,17.81,17.81,0,0,0,3.6-7.62,9.84,9.84,0,0,0-1.39-7.93,16.31,16.31,0,0,0-6.23-5.25,40.1,40.1,0,0,0-5.15-2.11,37.18,37.18,0,0,1-5.46-2.37,15.18,15.18,0,0,1-4.32-3.4,7.05,7.05,0,0,1-1.64-3.72,10.06,10.06,0,0,1-.12-1.59,15.23,15.23,0,0,1,1.81-7c.37-.74.78-1.45,1.22-2.15a27.26,27.26,0,0,1,3.36-4.34,25.93,25.93,0,0,1,6.08-4.79,12.71,12.71,0,0,1,6.18-1.85,3.35,3.35,0,0,1,3.14,1.49,6.36,6.36,0,0,1,.87,3.25,7.63,7.63,0,0,1-1.64,4.58q-1.65,2.22-3.56,4.48a53.18,53.18,0,0,0-3.55,4.74,9.3,9.3,0,0,0-1.65,5.25,4,4,0,0,0,.72,2.22,8.61,8.61,0,0,0,4,3.19,5.84,5.84,0,0,0,2.11.46q.51,0,.51-.72a12,12,0,0,1,1.65-5.77c1.1-2,2.28-4,3.56-6s2.45-4,3.55-6a11.94,11.94,0,0,0,1.65-5.77A5.64,5.64,0,0,0,556.12,113.52Z" transform="translate(-490.69 -38.1)"/><path class="cls-2" d="M685.55,140a1.83,1.83,0,0,0-.77-.67,1.31,1.31,0,0,0-1,0,1.25,1.25,0,0,0-.78.82,47.46,47.46,0,0,1-6,11.07,62,62,0,0,1-7.67,8.6l.2-.92q1.14-4.84,2.53-10.3t3-10.92a21.89,21.89,0,0,1,1-2.58,3.11,3.11,0,0,0,.42-1.08,1,1,0,0,0-.42-1,20.18,20.18,0,0,0-3.09-1.9,8,8,0,0,0-3.6-1.08c-.62,0-1.1.44-1.44,1.34-.55,1.23-1.05,2.47-1.5,3.7-.3.83-.57,1.69-.82,2.55-.12.42-.25.84-.36,1.27-.07.27-.14.53-.21.77s-.14.5-.2.77c-.62,1.79-1.45,4.12-2.47,7s-2.17,5.69-3.4,8.4a49.72,49.72,0,0,1-3.82,7q-1.95,2.94-3.6,2.94a1.49,1.49,0,0,1-1.39-1,2.8,2.8,0,0,1-.25-1.17,4.72,4.72,0,0,1,.05-.73,7,7,0,0,1,.15-.83q.61-2.78,1.39-6.08c.51-2.19,1.08-4.43,1.7-6.69s1.29-4.52,2-6.75,1.45-4.34,2.21-6.33a6.61,6.61,0,0,1,.72-1.7,1,1,0,0,0-.31-1.5c-.34-.27-.77-.58-1.28-.92a16.13,16.13,0,0,0-1.7-1,12.5,12.5,0,0,0-1.91-.77,5.64,5.64,0,0,0-1.7-.31c-.62,0-1.13.44-1.54,1.34a97.57,97.57,0,0,0-4.52,13c-.2.52-.41,1-.63,1.58-.9,2.2-1.89,4.43-3,6.7s-2.3,4.48-3.6,6.64l-.18.27a31.39,31.39,0,0,1-4,5.34c-.75.76-1.27,1.05-1.54.88s-.35-.84-.21-2q.72-5.46,2.22-13t3.4-15.24q1.89-7.68,4-14.27a58.08,58.08,0,0,1,4.07-10.09,6.7,6.7,0,0,1,.62-.88l.72-.87a.7.7,0,0,0,.21-.52c0-.41-.38-.86-1.14-1.34a17.73,17.73,0,0,0-2.62-1.34c-1-.41-2-.77-3-1.08a8.38,8.38,0,0,0-2.22-.46c-.68,0-1.47.93-2.36,2.78a59.44,59.44,0,0,0-2.84,7.42q-1.49,4.63-3,10.55t-2.73,12.16q-1.25,6.23-2.22,12.36c-.15.92-.28,1.83-.41,2.71-.07.15-.14.29-.2.43q-1,2.12-2.2,4.14l-.05.09c-.49.85-1,1.69-1.51,2.52a33,33,0,0,1-4.43,5.61c-.55.55-1,.76-1.24.62s-.34-.59-.2-1.34q.4-2.68,1.18-6,.66-2.85,1.43-5.91l0-.08.24-1q.93-3.6,2-7.26t2.32-6.95l.56-1.34c.17-.41.36-.83.57-1.24a2.64,2.64,0,0,0,.31-1.13,1.85,1.85,0,0,0-.88-1.39,11.46,11.46,0,0,0-2.06-1.24,13.79,13.79,0,0,0-2.32-.87,6.88,6.88,0,0,0-1.64-.31c-.83,0-2.77,0-3.12.34a20.53,20.53,0,0,0-3.46,3.62c-1.27,1.65-2.37,3.45-3.61,5.44s-4.1,6.51-4.1,6.51v0c.17-.59.35-1.18.53-1.77q1.27-4.23,2.73-7.93a10.51,10.51,0,0,1,.82-1.7,1,1,0,0,0-.31-1.5c-.34-.27-.77-.58-1.29-.92a13,13,0,0,0-1.75-1,14.34,14.34,0,0,0-2-.77,5.69,5.69,0,0,0-1.7-.31c-.62,0-1.1.44-1.45,1.34a76,76,0,0,0-3,8.08q-.9,2.82-1.68,5.72v0c-.29,1.07-.57,2.14-.84,3.22,0,.07,0,.14-.05.21q-1,2.22-2.06,4.48a69.26,69.26,0,0,1-3.76,6.75,36,36,0,0,1-4.33,5.61A1.55,1.55,0,0,1,581,166c-.35-.06-.45-.48-.31-1.23q.51-2.79,1.29-6.34t1.8-7.36c.65-2.4,1.34-4.79,2.08-7.19l0-.06c0-.13.08-.25.11-.37.79-2.54,1.63-5,2.53-7.21a6,6,0,0,1,.72-1.7,1,1,0,0,0-.31-1.5c-.34-.27-.77-.58-1.29-.92a14.33,14.33,0,0,0-1.7-1,12.4,12.4,0,0,0-1.9-.77,5.69,5.69,0,0,0-1.7-.31c-.62,0-1.14.44-1.55,1.34-.48,1.1-.92,2.23-1.34,3.4s-.82,2.36-1.23,3.6c-.16.46-.35,1.05-.59,1.76l0,.07c-.19.56-.39,1.18-.63,1.88-.55,1.65-1.2,3.48-2,5.51s-1.58,4.12-2.47,6.28-1.8,4.12-2.73,5.87a25.62,25.62,0,0,1-2.78,4.33,3.71,3.71,0,0,1-2.62,1.7,1.43,1.43,0,0,1-1.29-1,4.18,4.18,0,0,1,0-2.73q.51-2.78,1.28-6.08c.52-2.19,1.09-4.43,1.7-6.69s1.29-4.52,2-6.75,1.46-4.34,2.22-6.33a10.76,10.76,0,0,1,.61-1.3l0,0,.19-.35a1,1,0,0,0-.31-1.5c-.34-.27-.77-.58-1.29-.92a14.33,14.33,0,0,0-1.7-1l-.2-.1-.07,0a10.86,10.86,0,0,0-1.63-.65,5.64,5.64,0,0,0-1.7-.31c-.62,0-1.13.44-1.54,1.34a99,99,0,0,0-4.74,13.85,140.85,140.85,0,0,0-3.2,15,14.08,14.08,0,0,0-.25,1.95,14.49,14.49,0,0,1-.26,2,4.61,4.61,0,0,0,.46,2.37,7.89,7.89,0,0,0,1.6,2.27,8.61,8.61,0,0,0,2.42,1.69,6.42,6.42,0,0,0,2.83.67q3.51,0,6.34-3.45a44.21,44.21,0,0,0,5.2-8.18.78.78,0,0,0-.11.36.82.82,0,0,1-.1.36c-.07.68-.14,1.33-.2,1.95s-.18,1.27-.31,2a7,7,0,0,0,1.39,4.74,5,5,0,0,0,4.27,2.26,7.08,7.08,0,0,0,4.38-1.75,24.23,24.23,0,0,0,4.27-4.48,48.34,48.34,0,0,0,3.49-5.37q-.57,3.51-.81,6.66a2.79,2.79,0,0,0,.67,1.7,8.38,8.38,0,0,0,1.65,1.6,9.68,9.68,0,0,0,2.11,1.18,5.48,5.48,0,0,0,2.06.46,2.35,2.35,0,0,0,.88-.15c.24-.1.36-.43.36-1a20.87,20.87,0,0,1,.87-4.43q.78-2.67,2-5.82t2.78-6.54c1-2.2,2.07-4.33,3.2-6.41h0l.09-.17c1.16-2.13,2.35-4.1,3.55-5.92a34.65,34.65,0,0,1,3.55-4.59q-1.12,3.3-2.21,7.06c-.47,1.62-.9,3.27-1.32,4.93h0c-.23.91-.46,1.81-.68,2.73q-.93,3.91-1.6,7.73t-1.08,7.1a4.48,4.48,0,0,0,1.55,3.76,6.07,6.07,0,0,0,4.43,1.7,7,7,0,0,0,4.37-1.75,24.27,24.27,0,0,0,4.28-4.48,47.33,47.33,0,0,0,2.93-4.4c0,.18,0,.36,0,.54-.07,1-.1,2.13-.1,3.3a10.84,10.84,0,0,0,.46,3.24,5.49,5.49,0,0,0,1.6,2.52,4.7,4.7,0,0,0,3.29,1,4.92,4.92,0,0,0,.67,0h0a7.33,7.33,0,0,0,3.72-1.71,22.53,22.53,0,0,0,3-3h0q.28-.33.57-.69l0,0c.19-.23.38-.48.57-.73l0,0c.68-.91,1.35-1.87,2-2.89s1.29-2.1,1.91-3.24l.66-1.23c-.16.9-.32,1.79-.46,2.68-.06.68-.13,1.33-.2,1.95,0,.31-.08.63-.13,1s-.11.66-.18,1a3.62,3.62,0,0,0,0,.57,5,5,0,0,0,.47,1.8,7.89,7.89,0,0,0,1.6,2.27,8.75,8.75,0,0,0,2.42,1.69,6.42,6.42,0,0,0,2.83.67q3.51,0,6.34-3.4a37.24,37.24,0,0,0,4.52-7c.2-.38.39-.77.58-1.16-.18.79-.35,1.57-.52,2.33s-.34,1.51-.51,2.25c-.35,1.48-.69,3-1,4.48-1.1.76-2.29,1.51-3.56,2.27s-2.52,1.54-3.76,2.37S648.2,175,647,175.9a21.52,21.52,0,0,0-3.19,3,15.42,15.42,0,0,0-2,3,11.9,11.9,0,0,0-1.19,3.55,11.53,11.53,0,0,0-.16,1.84,12.27,12.27,0,0,0,.11,1.82,7.26,7.26,0,0,0,1.39,3.34,7.07,7.07,0,0,0,2.94,2.48l.41.16a8.61,8.61,0,0,0,3.24.66q6.07,0,9.12-3.14a22,22,0,0,0,4.79-8.29q1.74-4.84,3.14-9.79t2.52-10a74.25,74.25,0,0,0,9.79-10,48.14,48.14,0,0,0,7.62-13.49A1,1,0,0,0,685.55,140Zm-30.85,39.7c-.65,2.13-1.29,4.09-1.9,5.87a16.73,16.73,0,0,1-.88,2,7.94,7.94,0,0,1-1.54,2.1l-.34.3a3.82,3.82,0,0,1-2.39,1,2.57,2.57,0,0,1-2.27-1.24,5.33,5.33,0,0,1-.93-2.57l0-.61a7.17,7.17,0,0,1,1.11-3.92,18.2,18.2,0,0,1,3.2-3.81,29.49,29.49,0,0,1,4.07-3.15c1.44-.92,2.74-1.8,3.91-2.62Q655.68,176.52,654.7,179.71Z" transform="translate(-490.69 -38.1)"/></g></svg>