<svg id="Calque_7" data-name="Calque 7" xmlns="http://www.w3.org/2000/svg" viewBox="0 0 205.17 246.77"><defs><style>.cls-1{fill:#8c1816;}.cls-2{fill:none;}.cls-3{fill:#fff;}</style></defs><title>LOGO 3</title><path class="cls-1" d="M223.76,240.14a9,9,0,0,1-8.95-8.94V224a9,9,0,0,1,17.9,0v7.22A9,9,0,0,1,223.76,240.14Zm0-23.11a7,7,0,0,0-6.95,6.95v7.22a7,7,0,0,0,13.9,0V224A7,7,0,0,0,223.76,217Z" transform="translate(-150.11 -21.46)"/><path class="cls-1" d="M277.64,240.14a9,9,0,0,1-8.95-8.94V224a8.95,8.95,0,1,1,17.89,0v7.22A9,9,0,0,1,277.64,240.14Zm0-23.11a7,7,0,0,0-6.95,6.95v7.22a6.95,6.95,0,0,0,13.89,0V224A7,7,0,0,0,277.64,217Z" transform="translate(-150.11 -21.46)"/><path class="cls-1" d="M223.76,81.16a9,9,0,0,1-8.95-9V65a8.95,8.95,0,0,1,17.9,0v7.21A9,9,0,0,1,223.76,81.16Zm0-23.11a7,7,0,0,0-6.95,7v7.21a7,7,0,0,0,13.9,0V65A7,7,0,0,0,223.76,58.05Z" transform="translate(-150.11 -21.46)"/><path class="cls-1" d="M277.42,81.16a9,9,0,0,1-8.94-9V65a8.95,8.95,0,1,1,17.89,0v7.21A9,9,0,0,1,277.42,81.16Zm0-23.11a7,7,0,0,0-6.94,7v7.21a6.95,6.95,0,1,0,13.89,0V65A7,7,0,0,0,277.42,58.05Z" transform="translate(-150.11 -21.46)"/><path class="cls-1" d="M258.45,82.77H243a3.19,3.19,0,0,1-3.19-3.19V69.31l1.79-.6,3.52,2.54-.16.66a5.19,5.19,0,0,0-.18,1.33,5.48,5.48,0,0,0,11,0,6.06,6.06,0,0,0-.1-1l-.12-.66,4.78-3.13,1.4.37V79.58A3.19,3.19,0,0,1,258.45,82.77ZM241.76,71.33v8.25A1.19,1.19,0,0,0,243,80.77h15.5a1.19,1.19,0,0,0,1.19-1.19V71.23l-2,1.31c0,.23,0,.47,0,.7a7.48,7.48,0,1,1-14.85-1.14Z" transform="translate(-150.11 -21.46)"/><path class="cls-1" d="M261.64,61.11l-1.39-.47-20.49-.15V57.63A3.19,3.19,0,0,1,243,54.44h15.5a3.19,3.19,0,0,1,3.19,3.19ZM241.76,58.5l17.88.14v-1a1.19,1.19,0,0,0-1.19-1.19H243a1.19,1.19,0,0,0-1.19,1.19Z" transform="translate(-150.11 -21.46)"/><path class="cls-1" d="M250.21,80.71a7.4,7.4,0,0,1-7.38-8.61l-2.27-1.64L230.71,73V61.82l9.89-3.33,20.14.21L270.48,62v11.2L260.6,70.6l-3,1.94c0,.23,0,.47,0,.7A7.48,7.48,0,0,1,250.21,80.71ZM241,68.28l4.11,3-.16.66a5.19,5.19,0,0,0-.18,1.33,5.48,5.48,0,0,0,11,0,6.06,6.06,0,0,0-.1-1l-.12-.66,4.78-3.13,8.24,2.14V63.41l-8.23-2.77-19.33-.15-8.21,2.77v7.17Z" transform="translate(-150.11 -21.46)"/><path class="cls-1" d="M260.24,227.54l-4.78-3.13.12-.66a5.86,5.86,0,0,0,.1-1,5.48,5.48,0,0,0-11,0,5.19,5.19,0,0,0,.18,1.33l.16.66L242,227l-2.19-.13V216.61a3.19,3.19,0,0,1,3.19-3.19h15.5a3.19,3.19,0,0,1,3.19,3.19v10.57Zm-2.6-4.09,2,1.3v-8.14a1.2,1.2,0,0,0-1.19-1.19h-6.74a7.49,7.49,0,0,1,6,7.32C257.68,223,257.66,223.21,257.64,223.45Zm-14.69-8a1.19,1.19,0,0,0-1.19,1.19v8l1.07-.77a7.31,7.31,0,0,1-.1-1.14,7.49,7.49,0,0,1,6-7.32Z" transform="translate(-150.11 -21.46)"/><path class="cls-1" d="M258.34,241.75h-15.5a3.19,3.19,0,0,1-3.19-3.19V235.5l20.56-.18,1.32-.45v3.69A3.19,3.19,0,0,1,258.34,241.75Zm-16.69-4.27v1.08a1.19,1.19,0,0,0,1.19,1.19h15.5a1.19,1.19,0,0,0,1.19-1.19v-1.22Z" transform="translate(-150.11 -21.46)"/><path class="cls-1" d="M240.6,237.49l-9.89-3.33V223l9.85,2.56,2.27-1.64a7.31,7.31,0,0,1-.1-1.14,7.48,7.48,0,0,1,15,0c0,.23,0,.47,0,.71l3,1.93,9.88-2.57V234l-10.05,3.33Zm-7.89-4.76,8.21,2.76,19.4-.17,8.16-2.74V225.4l-8.24,2.14-4.78-3.13.12-.66a5.86,5.86,0,0,0,.1-1,5.48,5.48,0,0,0-11,0,5.19,5.19,0,0,0,.18,1.33l.16.66-4.11,3-8.25-2.15Z" transform="translate(-150.11 -21.46)"/><path class="cls-1" d="M226.62,252.44c.38-.58.83-1.26,1.21-1.74l0,0a16.52,16.52,0,0,1-1.73,1c-.92.47-1.39.7-2.35,1.14l-.48-.41c.3-1,.46-1.46.8-2.42a13.13,13.13,0,0,1,.8-1.86l0,0c-.43.44-1,1-1.58,1.5l-1.57,1.4-.57-.57c1.51-1.25,2.26-1.89,3.75-3.18l.68.65c-.36,1-.53,1.45-.85,2.43-.21.62-.4,1.17-.61,1.66l0,0c.44-.28,1-.55,1.56-.85.93-.46,1.39-.7,2.29-1.2l.73.56c-1.05,1.66-1.58,2.49-2.6,4.17-.26-.19-.39-.28-.64-.48C225.91,253.52,226.14,253.16,226.62,252.44Z" transform="translate(-150.11 -21.46)"/><path class="cls-1" d="M228.71,254.67c-.54.38-.82.56-1.38.93l-.69-.48a46.09,46.09,0,0,0,4.38-3c.29.19.44.28.74.45a48.15,48.15,0,0,0-.67,5.26l-.75-.41c.07-.67.1-1,.19-1.67C229.79,255.36,229.43,255.13,228.71,254.67Zm1.93.61c.09-.61.13-.91.23-1.51.06-.34.14-.63.21-.92h0c-.22.21-.46.41-.71.61l-1.24.89C229.72,254.73,230,254.92,230.64,255.28Z" transform="translate(-150.11 -21.46)"/><path class="cls-1" d="M234.07,254c.41.14.89.32,1.4.55a3.74,3.74,0,0,1,1.8,1.42,2.21,2.21,0,0,1,.13,1.93,2.29,2.29,0,0,1-1.46,1.49,4,4,0,0,1-2.76-.4,11,11,0,0,1-1.27-.68C232.77,256.54,233.21,255.68,234.07,254Zm-1.24,4.22a4.18,4.18,0,0,0,.71.37c1.53.7,2.65.29,3.13-.94s0-2-1.38-2.63a5.47,5.47,0,0,0-.79-.29C233.84,256.08,233.5,256.78,232.83,258.17Z" transform="translate(-150.11 -21.46)"/><path class="cls-1" d="M241.09,259.25c-.87-.22-1.3-.34-2.15-.61-.21.68-.32,1-.53,1.69,1,.31,1.5.45,2.51.69l-.12.52c-1.33-.32-2-.51-3.3-.94l1.55-4.66c1.11.37,1.66.53,2.79.81l-.13.51c-.87-.21-1.3-.33-2.16-.6-.18.59-.27.89-.46,1.48.85.26,1.27.38,2.13.6Z" transform="translate(-150.11 -21.46)"/><path class="cls-1" d="M245.17,257.4c-.29,2-.44,2.92-.73,4.85l-.78-.12.83-4.83Z" transform="translate(-150.11 -21.46)"/><path class="cls-1" d="M245.79,262.44c.23-1.95.35-2.92.58-4.88.3,0,.44.06.74.08.59,1.06.91,1.58,1.59,2.61.39.6.71,1.12,1,1.63h0a16.38,16.38,0,0,1,0-2c0-.82,0-1.23.06-2.05h.64c0,2,0,2.94,0,4.9h-.79c-.74-1-1.09-1.54-1.73-2.58a11,11,0,0,1-.9-1.72h0c0,.62-.07,1.21-.15,2s-.12,1.25-.21,2.08Z" transform="translate(-150.11 -21.46)"/><path class="cls-1" d="M253.25,257.73c1.15-.08,1.72-.14,2.86-.31l.08.53c-.88.13-1.32.18-2.21.26.06.65.09,1,.14,1.62.86-.07,1.28-.12,2.13-.24l.08.52c-.86.12-1.3.17-2.16.24.08.89.12,1.33.19,2.21l-.77.06C253.45,260.67,253.38,259.69,253.25,257.73Z" transform="translate(-150.11 -21.46)"/><path class="cls-1" d="M257.09,257.33a11.12,11.12,0,0,1,1.29-.35,2.58,2.58,0,0,1,1.61,0,1.23,1.23,0,0,1,.65.8,1.3,1.3,0,0,1-.72,1.47v0a1.32,1.32,0,0,1,1.07.75,6,6,0,0,0,.8,1.18l-.79.21a5,5,0,0,1-.67-1,1.1,1.1,0,0,0-1.35-.67l-.69.14c.16.83.25,1.25.41,2.08l-.77.15C257.59,260.19,257.43,259.24,257.09,257.33Zm1.11,2.07.74-.15c.77-.17,1.16-.65,1-1.19s-.71-.76-1.43-.61a2.88,2.88,0,0,0-.67.19C258,258.34,258.06,258.7,258.2,259.4Z" transform="translate(-150.11 -21.46)"/><path class="cls-1" d="M263.16,259.21c0,.67-.07,1-.13,1.66l-.78.23a46.7,46.7,0,0,0,.39-5.26l.8-.28a45.14,45.14,0,0,0,3.63,3.84l-.78.32c-.47-.47-.71-.71-1.16-1.2C264.35,258.82,264,259,263.16,259.21Zm1.65-1.1c-.42-.44-.62-.67-1-1.13a8.22,8.22,0,0,1-.57-.74h0c0,.3,0,.62,0,.93,0,.61,0,.92-.08,1.53C263.82,258.48,264.15,258.36,264.81,258.11Z" transform="translate(-150.11 -21.46)"/><path class="cls-1" d="M267.9,259c-.8-1.78-1.21-2.68-2-4.47l.69-.32a30.63,30.63,0,0,0,2.74,1.4c.65.3,1.2.58,1.71.87h0a16.37,16.37,0,0,1-1.08-1.71L269,253l.58-.34,2.5,4.22-.71.41c-1.17-.48-1.75-.74-2.86-1.29a12.11,12.11,0,0,1-1.67-1l0,0c.3.54.57,1.07.92,1.81s.54,1.13.89,1.89Z" transform="translate(-150.11 -21.46)"/><path class="cls-1" d="M276.72,253.45a4.78,4.78,0,0,1-1.19,1.21c-1.44,1.06-3,1-3.89-.35s-.37-2.79,1-3.82a3.56,3.56,0,0,1,1.19-.64l.18.51a3.43,3.43,0,0,0-1,.54,2,2,0,0,0-.7,2.95c.66,1,1.82,1.19,3.05.28a3.75,3.75,0,0,0,.92-1Z" transform="translate(-150.11 -21.46)"/><path class="cls-1" d="M278.47,249c-.68.67-1,1-1.74,1.62l1.16,1.33c.83-.72,1.24-1.1,2-1.89l.37.37a36.17,36.17,0,0,1-2.67,2.46l-3.16-3.75c.94-.79,1.39-1.21,2.27-2.08l.38.37c-.68.68-1,1-1.74,1.63.4.47.61.7,1,1.17.7-.62,1-.94,1.71-1.6Z" transform="translate(-150.11 -21.46)"/><path class="cls-1" d="M204.47,108l-.15-.35a15.74,15.74,0,0,0-7-8l-.11,0a18.34,18.34,0,0,0-8.75-2,26.05,26.05,0,0,0-4.6.4,26.9,26.9,0,0,0-7.57,2.53,35.88,35.88,0,0,0-10.19,7.66,33.44,33.44,0,0,0-6.65,10.53,23.27,23.27,0,0,0-1.56,11.55,16.72,16.72,0,0,0,3.18,8.14,22.29,22.29,0,0,0,5.87,5.2c.69.43,1.4.83,2.13,1.23a58.29,58.29,0,0,0,5.25,2.6,58.5,58.5,0,0,1,7.55,4q4.67,3.12,4.67,7.42a8.65,8.65,0,0,1-2.1,5.81,18.14,18.14,0,0,1-5.15,4.12,26.35,26.35,0,0,1-5.89,2.35l-.58.17a26.24,26.24,0,0,1-6.06.83,15.07,15.07,0,0,1-2.81-.29,11.76,11.76,0,0,1-2.76-.9,5.7,5.7,0,0,1-2.1-1.66,4.3,4.3,0,0,1-.84-2.74,7.34,7.34,0,0,1,1-3.68,13.25,13.25,0,0,1,2.58-3.22,13.82,13.82,0,0,1,3.48-2.32,8.8,8.8,0,0,1,3.71-.89q.72,0,.72-.6a6.11,6.11,0,0,0-.12-1.2,8.15,8.15,0,0,0-1.26-2.27,13.71,13.71,0,0,0-2.1-2.22,12.08,12.08,0,0,0-2.57-1.68,6,6,0,0,0-2.58-.66,4.58,4.58,0,0,0-2,.54,9.64,9.64,0,0,0-2,1.38,23.19,23.19,0,0,0-1.73,1.68A12.68,12.68,0,0,0,154,153a19.69,19.69,0,0,0-3.48,7.55,14.15,14.15,0,0,0,.24,7.79,13.73,13.73,0,0,0,3.78,5.81,17.81,17.81,0,0,0,6.17,3.6,22.66,22.66,0,0,0,7.55,1.26,38.32,38.32,0,0,0,7.83-.83c.62-.13,1.25-.27,1.88-.43a31.83,31.83,0,0,0,9.11-3.9,29.51,29.51,0,0,0,7.31-6.47,20.72,20.72,0,0,0,4.2-8.87,11.47,11.47,0,0,0-1.62-9.23,19.16,19.16,0,0,0-7.25-6.11,47.77,47.77,0,0,0-6-2.46,41.56,41.56,0,0,1-6.35-2.76,17.81,17.81,0,0,1-5-4,8.3,8.3,0,0,1-1.91-4.33,12.12,12.12,0,0,1-.13-1.85,17.83,17.83,0,0,1,2.1-8.09c.43-.85.91-1.69,1.42-2.5a31.9,31.9,0,0,1,3.91-5,30.12,30.12,0,0,1,7.07-5.57,14.8,14.8,0,0,1,7.19-2.16,3.88,3.88,0,0,1,3.66,1.74,7.33,7.33,0,0,1,1,3.77,8.84,8.84,0,0,1-1.92,5.34q-1.92,2.58-4.13,5.21a62,62,0,0,0-4.14,5.52,10.79,10.79,0,0,0-1.92,6.11,4.6,4.6,0,0,0,.84,2.58,10.07,10.07,0,0,0,4.62,3.71,6.86,6.86,0,0,0,2.45.54q.6,0,.6-.84a13.87,13.87,0,0,1,1.92-6.71c1.28-2.32,2.66-4.63,4.14-7s2.85-4.64,4.13-7a13.9,13.9,0,0,0,1.92-6.72A6.5,6.5,0,0,0,204.47,108Z" transform="translate(-150.11 -21.46)"/><path class="cls-1" d="M355.09,138.82a2.08,2.08,0,0,0-.89-.78,1.56,1.56,0,0,0-1.2,0,1.44,1.44,0,0,0-.9,1,56.1,56.1,0,0,1-7,12.89,73.27,73.27,0,0,1-8.93,10l.24-1.08q1.31-5.64,2.93-12t3.54-12.7a23.28,23.28,0,0,1,1.2-3,3.73,3.73,0,0,0,.48-1.26,1.13,1.13,0,0,0-.48-1.14,23.47,23.47,0,0,0-3.6-2.22,9.38,9.38,0,0,0-4.19-1.25c-.72,0-1.28.52-1.68,1.55q-1,2.16-1.74,4.32c-.35,1-.66,2-1,3-.14.49-.29,1-.42,1.47q-.12.48-.24.9t-.24.9q-1.08,3.12-2.87,8.15t-4,9.77a57.77,57.77,0,0,1-4.44,8.15q-2.26,3.42-4.19,3.42a1.73,1.73,0,0,1-1.62-1.14,3.29,3.29,0,0,1-.28-1.36,5,5,0,0,1,.05-.85,7.34,7.34,0,0,1,.17-1q.72-3.22,1.62-7.07t2-7.79c.72-2.64,1.5-5.25,2.33-7.85s1.7-5,2.58-7.37a7.53,7.53,0,0,1,.84-2,1.19,1.19,0,0,0-.36-1.74q-.6-.48-1.5-1.08a19.25,19.25,0,0,0-2-1.14,16.32,16.32,0,0,0-2.22-.89,6.72,6.72,0,0,0-2-.36c-.72,0-1.32.52-1.8,1.55A113.92,113.92,0,0,0,308.13,144c-.24.59-.48,1.21-.74,1.83q-1.56,3.84-3.48,7.8t-4.19,7.73c-.07.11-.14.21-.2.32a37.45,37.45,0,0,1-4.72,6.21c-.88.88-1.48,1.22-1.79,1s-.4-1-.24-2.34c.55-4.23,1.42-9.29,2.57-15.16s2.48-11.79,4-17.74,3-11.49,4.67-16.6a67,67,0,0,1,4.74-11.75,7.5,7.5,0,0,1,.72-1q.36-.42.84-1a.81.81,0,0,0,.24-.6c0-.48-.44-1-1.32-1.55a19.81,19.81,0,0,0-3.06-1.56c-1.16-.48-2.32-.9-3.47-1.26a9.78,9.78,0,0,0-2.58-.54q-1.2,0-2.76,3.24a67.92,67.92,0,0,0-3.29,8.63q-1.74,5.39-3.48,12.28t-3.18,14.15q-1.44,7.25-2.57,14.38c-.18,1.08-.34,2.13-.49,3.16-.07.17-.15.33-.23.5q-1.2,2.46-2.55,4.81l-.07.11c-.57,1-1.15,2-1.76,2.93a38.28,38.28,0,0,1-5.15,6.53q-1,1-1.44.72t-.24-1.56c.32-2.08.78-4.41,1.38-7q.76-3.33,1.67-6.88l0-.1c.1-.37.19-.74.29-1.11q1.08-4.2,2.33-8.45t2.7-8.09l.66-1.56q.3-.72.66-1.44a3,3,0,0,0,.36-1.32,2.13,2.13,0,0,0-1-1.62,13.6,13.6,0,0,0-2.4-1.44,16.82,16.82,0,0,0-2.69-1,8.32,8.32,0,0,0-1.92-.36c-1,0-3.22,0-3.63.39a24.18,24.18,0,0,0-4,4.22c-1.48,1.92-2.76,4-4.2,6.32s-4.78,7.58-4.78,7.58v0c.2-.69.41-1.37.62-2.06q1.5-4.92,3.17-9.23a12.76,12.76,0,0,1,1-2,1.19,1.19,0,0,0-.36-1.74q-.6-.48-1.5-1.08a15.29,15.29,0,0,0-2-1.14,19.5,19.5,0,0,0-2.28-.89,6.72,6.72,0,0,0-2-.36c-.72,0-1.28.52-1.68,1.55a91.88,91.88,0,0,0-3.53,9.41c-.7,2.19-1.34,4.41-2,6.66v0c-.34,1.24-.67,2.49-1,3.75l-.06.24c-.75,1.72-1.54,3.46-2.4,5.22a77.87,77.87,0,0,1-4.37,7.85,42.35,42.35,0,0,1-5,6.53,1.81,1.81,0,0,1-1.43.6q-.6-.12-.36-1.44c.4-2.16.9-4.61,1.49-7.37s1.3-5.61,2.1-8.57c.75-2.79,1.57-5.58,2.43-8.36,0,0,0-.06,0-.08s.09-.29.13-.43c.92-3,1.9-5.75,2.94-8.39a7.21,7.21,0,0,1,.84-2,1.21,1.21,0,0,0-.36-1.74c-.41-.32-.9-.68-1.5-1.08a18.41,18.41,0,0,0-2-1.14,16.32,16.32,0,0,0-2.22-.89,6.72,6.72,0,0,0-2-.36c-.72,0-1.31.52-1.79,1.55q-.84,1.92-1.56,4T230.2,137c-.18.53-.41,1.21-.68,2l0,.09c-.22.64-.46,1.36-.73,2.18q-1,2.88-2.28,6.41T223.61,155q-1.56,3.78-3.18,6.84a30.94,30.94,0,0,1-3.24,5c-1.07,1.32-2.09,2-3.05,2a1.66,1.66,0,0,1-1.5-1.14,4.92,4.92,0,0,1-.06-3.18q.6-3.22,1.5-7.07t2-7.79c.71-2.64,1.49-5.25,2.33-7.85s1.7-5,2.58-7.37a12,12,0,0,1,.71-1.52l0-.05.22-.41a1.19,1.19,0,0,0-.36-1.74q-.6-.48-1.5-1.08a18.41,18.41,0,0,0-2-1.14l-.24-.1-.07,0a14.7,14.7,0,0,0-1.9-.75,6.72,6.72,0,0,0-2-.36c-.72,0-1.32.52-1.8,1.55a115.44,115.44,0,0,0-5.51,16.13,163.69,163.69,0,0,0-3.72,17.44,16.11,16.11,0,0,0-.3,2.27,16.25,16.25,0,0,1-.3,2.28,5.41,5.41,0,0,0,.54,2.76,9.07,9.07,0,0,0,1.86,2.64,10.4,10.4,0,0,0,2.82,2,7.46,7.46,0,0,0,3.29.78c2.72,0,5.17-1.34,7.37-4a51,51,0,0,0,6.06-9.53,1,1,0,0,0-.12.42,1,1,0,0,1-.12.42c-.08.8-.16,1.55-.24,2.27s-.2,1.48-.36,2.28a8.16,8.16,0,0,0,1.62,5.51,5.77,5.77,0,0,0,5,2.64,8.23,8.23,0,0,0,5.09-2,28,28,0,0,0,5-5.21,57.14,57.14,0,0,0,4.05-6.25c-.43,2.72-.75,5.3-.93,7.75a3.27,3.27,0,0,0,.77,2,9.15,9.15,0,0,0,1.92,1.85,11.42,11.42,0,0,0,2.46,1.38,6.41,6.41,0,0,0,2.4.54,2.62,2.62,0,0,0,1-.18c.27-.12.41-.5.41-1.14a24.68,24.68,0,0,1,1-5.15c.6-2.08,1.38-4.33,2.34-6.77s2-5,3.24-7.61,2.4-5,3.72-7.46v0l.1-.2q2-3.7,4.14-6.89a39.93,39.93,0,0,1,4.13-5.33c-.88,2.56-1.73,5.29-2.57,8.21-.55,1.88-1.05,3.8-1.54,5.73v0c-.27,1.06-.54,2.11-.79,3.18-.72,3-1.34,6-1.86,9s-.94,5.71-1.26,8.27a5.19,5.19,0,0,0,1.8,4.37,7.11,7.11,0,0,0,5.16,2,8.25,8.25,0,0,0,5.09-2,28,28,0,0,0,5-5.21,53.54,53.54,0,0,0,3.41-5.12c0,.21,0,.42-.05.62q-.12,1.8-.12,3.84a12.7,12.7,0,0,0,.54,3.78,6.42,6.42,0,0,0,1.86,2.93,5.48,5.48,0,0,0,3.83,1.2,6.81,6.81,0,0,0,.78-.05h0a8.56,8.56,0,0,0,4.34-2,27.54,27.54,0,0,0,3.53-3.49h0l.66-.8,0,0c.22-.27.44-.55.66-.85l0,0c.8-1.06,1.58-2.18,2.34-3.37s1.5-2.44,2.21-3.76l.77-1.43c-.18,1-.37,2.08-.53,3.11-.08.8-.16,1.55-.24,2.27q-.06.54-.15,1.11t-.21,1.17a5,5,0,0,0,0,.67,5.86,5.86,0,0,0,.55,2.09,9.07,9.07,0,0,0,1.86,2.64,10.4,10.4,0,0,0,2.82,2,7.49,7.49,0,0,0,3.29.78q4.08,0,7.38-4A44.23,44.23,0,0,0,324.7,163c.23-.44.45-.89.67-1.35-.2.92-.4,1.82-.6,2.71s-.4,1.76-.6,2.62q-.6,2.58-1.2,5.22c-1.28.88-2.66,1.75-4.13,2.63s-2.94,1.8-4.38,2.76-2.84,2-4.19,3a25,25,0,0,0-3.72,3.47,18.74,18.74,0,0,0-2.34,3.54,14,14,0,0,0-1.38,4.13,14.31,14.31,0,0,0-.19,2.15,13.59,13.59,0,0,0,.13,2.11,8.53,8.53,0,0,0,1.62,3.89,8.24,8.24,0,0,0,3.42,2.88l.48.19a10,10,0,0,0,3.77.77q7.08,0,10.61-3.66a25.31,25.31,0,0,0,5.58-9.65q2-5.62,3.65-11.38t2.94-11.63a87.25,87.25,0,0,0,11.38-11.63,55.76,55.76,0,0,0,8.87-15.7A1.19,1.19,0,0,0,355.09,138.82ZM319.2,185c-.76,2.48-1.5,4.75-2.22,6.83a18.38,18.38,0,0,1-1,2.29,9.37,9.37,0,0,1-1.8,2.45l-.39.34A4.45,4.45,0,0,1,311,198.1a3,3,0,0,1-2.64-1.44,6.22,6.22,0,0,1-1.08-3c0-.24,0-.48,0-.71a8.19,8.19,0,0,1,1.29-4.56,21.46,21.46,0,0,1,3.71-4.44A34,34,0,0,1,317,180.3c1.68-1.08,3.19-2.1,4.55-3.06C320.73,180,320,182.55,319.2,185Z" transform="translate(-150.11 -21.46)"/><path class="cls-2" d="M297.56,185.68h0Z" transform="translate(-150.11 -21.46)"/><path class="cls-2" d="M167.94,147.71a.69.69,0,0,1,.13.11v0Z" transform="translate(-150.11 -21.46)"/><path class="cls-2" d="M169,159.48a6,6,0,0,0-2.45.61,10.65,10.65,0,0,0-2.71,1.82,10.05,10.05,0,0,0-2,2.48,4.39,4.39,0,0,0-.63,2.2,1.55,1.55,0,0,0,.21.89,2.67,2.67,0,0,0,1,.8,8.88,8.88,0,0,0,2.06.66,11.55,11.55,0,0,0,2.23.24,21.82,21.82,0,0,0,4.76-.62,82,82,0,0,1-2.16-9.11A3.16,3.16,0,0,1,169,159.48Z" transform="translate(-150.11 -21.46)"/><path class="cls-1" d="M222.43,134.85a43.16,43.16,0,0,0,5.47,4.26l0-.1a42.33,42.33,0,0,1-5.48-4.23Z" transform="translate(-150.11 -21.46)"/><path class="cls-1" d="M240.3,144.55a41.77,41.77,0,0,0,5.68,1v0a43.27,43.27,0,0,1-5.67-1.07Z" transform="translate(-150.11 -21.46)"/><path class="cls-1" d="M172.27,168.37l.3-.08.84-.25a80.14,80.14,0,0,1-2.19-9.25,3.74,3.74,0,0,1-1.91.66,82,82,0,0,0,2.16,9.11l.58-.13Z" transform="translate(-150.11 -21.46)"/><path class="cls-1" d="M170.18,150l-.06-1.11c-.69-.35-1.38-.7-2.05-1.06v0l.11.08A17.57,17.57,0,0,1,170.18,150Z" transform="translate(-150.11 -21.46)"/><path class="cls-1" d="M209,106.74c0,.13,0,.27,0,.4C209,107,209,106.87,209,106.74Z" transform="translate(-150.11 -21.46)"/><path class="cls-1" d="M213.2,122.53c.36.71.73,1.41,1.12,2.11C213.93,123.94,213.56,123.24,213.2,122.53Z" transform="translate(-150.11 -21.46)"/><path class="cls-1" d="M212.26,120.5q.24.57.51,1.14C212.59,121.27,212.42,120.88,212.26,120.5Z" transform="translate(-150.11 -21.46)"/><path class="cls-1" d="M211.23,117.86c.09.27.19.55.29.82C211.41,118.41,211.32,118.13,211.23,117.86Z" transform="translate(-150.11 -21.46)"/><path class="cls-1" d="M209.26,109.66c0,.17.05.35.07.52C209.31,110,209.28,109.83,209.26,109.66Z" transform="translate(-150.11 -21.46)"/><path class="cls-1" d="M210.45,115.41c.05.21.12.42.18.63C210.57,115.83,210.5,115.62,210.45,115.41Z" transform="translate(-150.11 -21.46)"/><path class="cls-1" d="M209.76,112.6l.12.56Z" transform="translate(-150.11 -21.46)"/><path class="cls-1" d="M210.91,105.63c0-.1,0-.2,0-.29C210.91,105.43,210.9,105.53,210.91,105.63Z" transform="translate(-150.11 -21.46)"/><path class="cls-1" d="M211,107.21v0Z" transform="translate(-150.11 -21.46)"/><polygon class="cls-1" points="58.77 82.59 58.77 82.58 58.89 67.55 58.77 82.58 58.77 82.59"/><path class="cls-1" d="M264.59,148.36l-.07,0-1-.36h0c.36.11.7.23,1,.35Z" transform="translate(-150.11 -21.46)"/><path class="cls-1" d="M265.12,146.43l.09,0h0Z" transform="translate(-150.11 -21.46)"/><path class="cls-1" d="M292.2,180.14h0Z" transform="translate(-150.11 -21.46)"/><path class="cls-1" d="M290.26,180.78a39.89,39.89,0,0,0-.75-4.21h0A37.54,37.54,0,0,1,290.26,180.78Z" transform="translate(-150.11 -21.46)"/><path class="cls-1" d="M215.06,125.87c-.24-.38-.47-.77-.69-1.15.22.38.43.77.66,1.14Z" transform="translate(-150.11 -21.46)"/><path class="cls-1" d="M290.57,185.73c0,.41,0,.82,0,1.23s0,.76-.05,1.19v0c0-.43,0-.81.05-1.19s0-.82,0-1.23v0Z" transform="translate(-150.11 -21.46)"/><path class="cls-1" d="M290.29,181.09c.09.7.16,1.41.2,2.11C290.45,182.5,290.37,181.79,290.29,181.09Z" transform="translate(-150.11 -21.46)"/><path class="cls-1" d="M292.48,183l0-.35Z" transform="translate(-150.11 -21.46)"/><path class="cls-1" d="M290.5,217.43V224c.05.87.07,1.64.07,2.36a39.85,39.85,0,1,1-78.47-9.76l.19-.75-.67-.37a81.58,81.58,0,0,1-33.2-34.76c-.53.13-1.08.26-1.71.39l-.31.05A83.61,83.61,0,0,0,210,216.88a41.84,41.84,0,1,0,82.59,9.5c0-.76,0-1.57-.07-2.42v-7.7l-.5.3Z" transform="translate(-150.11 -21.46)"/><path class="cls-1" d="M209.11,75.76l0-2.32a83.61,83.61,0,0,0-24.2,21.42c.89-.11,1.78-.17,2.68-.2A81.9,81.9,0,0,1,209.11,75.76Z" transform="translate(-150.11 -21.46)"/><path class="cls-1" d="M277,155.65l0,.12a40.65,40.65,0,0,1,3,2.89l.06-.1A37.59,37.59,0,0,0,277,155.65Z" transform="translate(-150.11 -21.46)"/><path class="cls-1" d="M265.59,146.61h0l-.38-.14Z" transform="translate(-150.11 -21.46)"/><path class="cls-1" d="M264.48,146.21h0l.64.22Z" transform="translate(-150.11 -21.46)"/><path class="cls-1" d="M265.1,148.56h0l-.51-.2Z" transform="translate(-150.11 -21.46)"/><path class="cls-1" d="M264.59,148.36l.51.2c0-.11,0-.22.08-.33l0-.15c-.18-.07-.35-.15-.53-.21h0l-.95-.33c-.08.15-.15.3-.23.44l1,.36Z" transform="translate(-150.11 -21.46)"/><path class="cls-1" d="M265,146.93l.44.17.12-.49-.37-.15h0l-.09,0-.64-.22-.25.44c.27.09.55.18.8.28Z" transform="translate(-150.11 -21.46)"/><path class="cls-1" d="M265,146.93c-.25-.1-.53-.19-.8-.28-.11.21-.23.41-.35.62l0,.07,0,.1v.05l0,0,.95.33Z" transform="translate(-150.11 -21.46)"/><path class="cls-1" d="M265,146.93h0l-.35.94h0c.18.06.35.14.53.21l0-.18c.07-.28.14-.54.21-.8l-.44-.17Z" transform="translate(-150.11 -21.46)"/><polygon class="cls-1" points="114.93 125.47 114.93 125.47 114.58 126.41 114.59 126.41 114.93 125.47"/><path class="cls-1" d="M223.35,133a40.77,40.77,0,0,0,5.21,4.18l0-.08a40.89,40.89,0,0,1-5.21-4.15Z" transform="translate(-150.11 -21.46)"/><path class="cls-1" d="M211,107.21a39.54,39.54,0,0,0,7.08,19.66l.06,0A39.24,39.24,0,0,1,211,107.21Z" transform="translate(-150.11 -21.46)"/><path class="cls-1" d="M240.89,142.64a40.68,40.68,0,0,0,5.63,1v0a40.87,40.87,0,0,1-5.62-1Z" transform="translate(-150.11 -21.46)"/><path class="cls-1" d="M277.51,153.6a42.25,42.25,0,0,1,3.46,3.23l0-.1a41.06,41.06,0,0,0-3.49-3.23Z" transform="translate(-150.11 -21.46)"/><polygon class="cls-1" points="59 54.3 59 54.3 58.89 67.55 59 54.3"/><path class="cls-1" d="M211.52,118.68c.23.61.48,1.22.74,1.82C212,119.9,211.75,119.29,211.52,118.68Z" transform="translate(-150.11 -21.46)"/><path class="cls-1" d="M211.14,72.26,210.88,104c0,.43,0,.87,0,1.3,0-.43,0-.87,0-1.3l.33-40.43V63.3c0-.11,0-.21,0-.32l0-.88a39.84,39.84,0,0,1,79.66,1.2,40.06,40.06,0,0,1-1.28,10l-.2.75.68.38a80.83,80.83,0,0,1,40.68,60.2c.23-.74.45-1.4.68-2s.49-1.31.75-2a82.87,82.87,0,0,0-40.47-57.58,41.84,41.84,0,1,0-82.46-12l-.06,1.84c0,.13,0,.26,0,.39v.32l-.08,9.82.49-.31Z" transform="translate(-150.11 -21.46)"/><path class="cls-1" d="M212.77,121.64c.14.3.29.6.43.89C213.06,122.23,212.91,121.94,212.77,121.64Z" transform="translate(-150.11 -21.46)"/><path class="cls-1" d="M210.63,116c.19.61.38,1.21.6,1.82C211,117.25,210.82,116.65,210.63,116Z" transform="translate(-150.11 -21.46)"/><path class="cls-1" d="M209.88,113.16c.17.75.35,1.51.57,2.25C210.24,114.67,210.05,113.91,209.88,113.16Z" transform="translate(-150.11 -21.46)"/><path class="cls-1" d="M209,107.14q.1,1.26.27,2.52Q209.1,108.4,209,107.14Z" transform="translate(-150.11 -21.46)"/><path class="cls-1" d="M208.88,104q0,1.36.09,2.7Q208.88,105.41,208.88,104Z" transform="translate(-150.11 -21.46)"/><path class="cls-1" d="M209.33,110.18c.12.81.26,1.62.43,2.42C209.59,111.8,209.45,111,209.33,110.18Z" transform="translate(-150.11 -21.46)"/><path class="cls-1" d="M214.32,124.64a.56.56,0,0,1,.05.08A.56.56,0,0,0,214.32,124.64Z" transform="translate(-150.11 -21.46)"/><path class="cls-1" d="M211,107.13q-.06-.75-.09-1.5Q210.94,106.38,211,107.13Z" transform="translate(-150.11 -21.46)"/><path class="cls-1" d="M223.22,133.23a.91.91,0,0,0-.07.14,40.84,40.84,0,0,0,5.28,4.17l.13-.4a40.77,40.77,0,0,1-5.21-4.18C223.31,133.05,223.27,133.14,223.22,133.23Z" transform="translate(-150.11 -21.46)"/><path class="cls-1" d="M222.46,134.78a42.33,42.33,0,0,0,5.48,4.23l.12-.38v0a40.33,40.33,0,0,1-5.43-4.25C222.57,134.5,222.52,134.64,222.46,134.78Z" transform="translate(-150.11 -21.46)"/><path class="cls-1" d="M240.76,143a41.06,41.06,0,0,0,5.63,1.05c0-.16.09-.3.13-.45a40.68,40.68,0,0,1-5.63-1C240.85,142.77,240.8,142.9,240.76,143Z" transform="translate(-150.11 -21.46)"/><path class="cls-1" d="M240.32,144.48a43.27,43.27,0,0,0,5.67,1.07l.12-.45a41.16,41.16,0,0,1-5.66-1C240.4,144.21,240.37,144.34,240.32,144.48Z" transform="translate(-150.11 -21.46)"/><path class="cls-1" d="M209.11,75.76,209,89l-.12,15h0q0,1.36.09,2.7c0,.13,0,.27,0,.4q.1,1.26.27,2.52c0,.17.05.35.07.52.12.81.26,1.62.43,2.42l.12.56c.17.75.36,1.51.57,2.25.05.21.12.42.18.63.19.61.39,1.21.6,1.82.09.27.18.55.29.82.23.61.48,1.22.74,1.82.16.38.33.77.51,1.14s.29.59.43.89c.36.71.73,1.41,1.12,2.11a.56.56,0,0,1,.05.08c.22.38.45.77.69,1.15.21,0,.44.11.66.16a41,41,0,0,1-6.34-21.93h0v0h1v0a39.68,39.68,0,0,0,6.89,22.46c.26.1.54.23.81.35A39.54,39.54,0,0,1,211,107.21v-.08q-.06-.75-.09-1.5c0-.1,0-.2,0-.29,0-.43,0-.87,0-1.3l.26-31.78-1.52.87-.49.31,0,2.32Z" transform="translate(-150.11 -21.46)"/><path class="cls-1" d="M277.1,155.21c0,.15-.07.29-.11.44a37.59,37.59,0,0,1,3,2.91l.16-.27,0-.06v0A39.91,39.91,0,0,0,277.1,155.21Z" transform="translate(-150.11 -21.46)"/><path class="cls-1" d="M277.51,153.6l0,.08-.09.35a41.85,41.85,0,0,1,3.37,3.15l.2-.35A42.25,42.25,0,0,0,277.51,153.6Z" transform="translate(-150.11 -21.46)"/><path class="cls-1" d="M228.09,138.54l.34-1a40.84,40.84,0,0,1-5.28-4.17l0,0-.1.19h0l0,.05c-.14.25-.26.48-.36.7a40.33,40.33,0,0,0,5.43,4.25" transform="translate(-150.11 -21.46)"/><path class="cls-1" d="M240.68,143.28l-.06.21-.07.24,0,.05h0c0,.09-.05.18-.08.28a41.16,41.16,0,0,0,5.66,1c.06-.2.11-.4.17-.62s.07-.26.11-.39a41.06,41.06,0,0,1-5.63-1.05C240.73,143.12,240.71,143.2,240.68,143.28Z" transform="translate(-150.11 -21.46)"/><path class="cls-1" d="M217.27,126.52a39.68,39.68,0,0,1-6.89-22.46v0h-1v0h0A41,41,0,0,0,215.72,126c.2,0,.39.09.61.16S217,126.4,217.27,126.52Z" transform="translate(-150.11 -21.46)"/><path class="cls-1" d="M292.45,182.64c-.06-.84-.14-1.67-.25-2.5C292.31,181,292.39,181.8,292.45,182.64Z" transform="translate(-150.11 -21.46)"/><polygon class="cls-1" points="140.39 195.97 140.39 169.68 140.39 195.97 140.39 195.97"/><path class="cls-1" d="M291.51,176.27h0c.29,1.27.55,2.55.72,3.85C292,178.83,291.79,177.54,291.51,176.27Z" transform="translate(-150.11 -21.46)"/><path class="cls-1" d="M290.26,180.78c0,.1,0,.21,0,.31C290.28,181,290.28,180.88,290.26,180.78Z" transform="translate(-150.11 -21.46)"/><path class="cls-1" d="M307.58,204.3l-.4-.17a10,10,0,0,1-1.07-.58,81,81,0,0,1-13.61,10.39V188.21c0-.39.05-.78.06-1.18s0-.86,0-1.3c0-.92,0-1.83-.09-2.74.06.91.09,1.82.09,2.74,0,.44,0,.87,0,1.3s0,.79-.06,1.18v28a83.26,83.26,0,0,0,15.55-11.79c-.11,0-.22-.07-.33-.12Z" transform="translate(-150.11 -21.46)"/><path class="cls-1" d="M290.49,183.2c.05.83.08,1.65.08,2.48C290.57,184.85,290.54,184,290.49,183.2Z" transform="translate(-150.11 -21.46)"/><path class="cls-1" d="M292.55,187c0-.43,0-.86,0-1.3,0-.92,0-1.83-.09-2.74l0-.35c-.06-.84-.14-1.67-.25-2.5h0c-.17-1.3-.43-2.58-.72-3.85-.15,0-.31.06-.46.09a42.64,42.64,0,0,1,1.06,9.36h-1a40.71,40.71,0,0,0-1.08-9.19l-.48,0a39.89,39.89,0,0,1,.75,4.21c0,.1,0,.21,0,.31.08.7.16,1.41.2,2.11s.08,1.65.08,2.48v0c0,.41,0,.82,0,1.23s0,.76-.05,1.19v29.28l1.5-.87.5-.3v-28C292.52,187.82,292.54,187.43,292.55,187Zm-.5,0-1,0c0-.41,0-.83,0-1.25h1C292.07,186.16,292.06,186.59,292.05,187Z" transform="translate(-150.11 -21.46)"/><path class="cls-1" d="M290.27,176.52h0l-.25,0a40.71,40.71,0,0,1,1.08,9.19h1a42.64,42.64,0,0,0-1.06-9.36c-.23,0-.46.11-.69.14Z" transform="translate(-150.11 -21.46)"/><path class="cls-1" d="M291.57,185.73h-.5c0,.42,0,.84,0,1.25l1,0c0-.43,0-.86,0-1.29Z" transform="translate(-150.11 -21.46)"/><path class="cls-1" d="M277.4,154h0l0,.1-.27,1.08a39.91,39.91,0,0,1,3.1,3l0,0c.2-.34.37-.67.55-1A41.85,41.85,0,0,0,277.4,154Z" transform="translate(-150.11 -21.46)"/><path class="cls-3" d="M238.47,142l0,.07,0-.07Z" transform="translate(-150.11 -21.46)"/><path class="cls-3" d="M229.53,139h0Z" transform="translate(-150.11 -21.46)"/></svg>